<svg xmlns="http://www.w3.org/2000/svg" xmlns:xlink="http://www.w3.org/1999/xlink" width="351.7531391942575" height="235.0000528672133" viewBox="0 0 351.7531391942575 235.0000528672133" fill="none"><g opacity="1" transform="translate(0 0)  rotate(0 175.8765695971287 117.50002643360665)"><g opacity="1" transform="translate(0 0)  rotate(0 175.8765695971287 117.30538532032517)"><path id="路径 1162" fill-rule="evenodd" style="fill:#D4EEF9" transform="translate(0 0)  rotate(0 175.8765695971287 117.30538532032517)" opacity="1" d="M24.94 125.77C13.07 114.62 2.22 100.95 0.24 84.79C-1.73 68.63 8.43 50.19 24.59 48.17C26.5464 47.9278 28.5223 47.9221 30.4965 47.9164C32.7605 47.9098 35.0224 47.9033 37.25 47.54C51.53 45.23 59.23 30.11 69.26 19.68C81.08 7.4 100.29 0.81 115.72 8.06C124.38 12.13 130.97 19.98 139.95 23.31C150.65 27.26 162.7 24.03 172.9 18.94C183.11 13.85 192.42 6.94 203.09 2.93C213.77 -1.07 226.74 -1.63 235.7 5.42C239.11 8.1 241.7 11.68 245.06 14.41C254.92 22.39 269.2 21.45 281.51 18.37C284.155 17.7078 286.801 16.9633 289.453 16.2176C299.132 13.4951 308.867 10.7568 318.75 11.95C331.22 13.46 342.68 21.66 348.13 32.98C353.58 44.3 352.83 58.38 346.23 69.06C341.3 77.03 333.62 82.85 327.37 89.83C321.12 96.81 316.07 106.13 318.25 115.25C319.59 120.88 323.48 125.5 326.98 130.11C336.1 142.13 343.55 156.71 341.78 171.7C340.17 185.26 331.27 196.84 321.43 206.32C312.87 214.57 303.29 221.68 295.49 230.54C293.2 233.14 289.9 234.61 286.44 234.61L80.95 234.61C64.19 226.83 52.43 204.47 51.63 186C51.491 182.746 51.6625 179.471 51.8339 176.201C52.1185 170.768 52.4024 165.348 51.26 160.06C48.17 145.73 35.62 135.81 24.94 125.77Z" /><g opacity="0.3" transform="translate(7.331253652949798 14.13052981881242)  rotate(0 172.19256591796875 105.556884765625)"><path id="矩形 300" fill-rule="evenodd" style="fill:#A9DDF3" transform="translate(271.5088806152344 154.33348083496094)  rotate(0 15.352702140808105 4.8059983253479)" opacity="1" d="M0,9.61L30.71,9.61L30.71,0L0,0L0,9.61Z " /><path id="矩形 301" fill-rule="evenodd" style="fill:#A9DDF3" transform="translate(259.5870361328125 120.7449722290039)  rotate(0 15.352702140808105 4.8059797286987305)" opacity="1" d="M0,9.61L30.71,9.61L30.71,0L0,0L0,9.61Z " /><path id="矩形 302" fill-rule="evenodd" style="fill:#A9DDF3" transform="translate(187.47865295410156 201.18682861328125)  rotate(0 15.3526611328125 4.8059797286987305)" opacity="1" d="M0,9.61L30.71,9.61L30.71,0L0,0L0,9.61Z " /><path id="矩形 303" fill-rule="evenodd" style="fill:#A9DDF3" transform="translate(254.01986694335938 56.764896392822266)  rotate(0 15.352681159973145 4.8059797286987305)" opacity="1" d="M0,9.61L30.71,9.61L30.71,0L0,0L0,9.61Z " /><path id="矩形 304" fill-rule="evenodd" style="fill:#A9DDF3" transform="translate(242.3388671875 107.28944396972656)  rotate(0 15.352681159973145 4.8059797286987305)" opacity="1" d="M0,9.61L30.71,9.61L30.71,0L0,0L0,9.61Z " /><path id="矩形 305" fill-rule="evenodd" style="fill:#A9DDF3" transform="translate(276.4787292480469 107.28944396972656)  rotate(0 15.352702140808105 4.8059797286987305)" opacity="1" d="M0,9.61L30.71,9.61L30.71,0L0,0L0,9.61Z " /><path id="路径 1163" fill-rule="evenodd" style="fill:#A9DDF3" transform="translate(111.79339599609376 1.7725830078125)  rotate(0 15.352767944335938 4.806091308593523)" opacity="1" d="M0 0L8.51 0C12.39 2.91 16.31 5.73 20.83 7.4C24.03 8.59 27.35 9.12 30.71 9.16L30.71 9.61L0 9.61L0 0Z" /><path id="路径 1164" fill-rule="evenodd" style="fill:#A9DDF3" transform="translate(288.87860107421875 188.04626464843705)  rotate(0 14.6578369140625 4.806030273437955)" opacity="1" d="M25.22 4.14C23.28 6.02 21.29 7.83 19.27 9.61L0 9.61L0 0L29.32 0C27.98 1.42 26.61 2.81 25.22 4.14Z" /><path id="矩形 306" fill-rule="evenodd" style="fill:#A9DDF3" transform="translate(163.5018310546875 23.165958404541016)  rotate(0 15.352681159973145 4.8059983253479)" opacity="1" d="M0,9.61L30.71,9.61L30.71,0L0,0L0,9.61Z " /><path id="矩形 307" fill-rule="evenodd" style="fill:#A9DDF3" transform="translate(276.339111328125 8.500311851501465)  rotate(0 15.352700233459473 4.8059983253479)" opacity="1" d="M0,9.61L30.71,9.61L30.71,0L0,0L0,9.61Z " /><path id="矩形 308" fill-rule="evenodd" style="fill:#A9DDF3" transform="translate(197.64175415039062 23.165958404541016)  rotate(0 15.352681159973145 4.8059983253479)" opacity="1" d="M0,9.61L30.71,9.61L30.71,0L0,0L0,9.61Z " /><path id="路径 1165" fill-rule="evenodd" style="fill:#A9DDF3" transform="translate(272.42828369140625 0)  rotate(0 8.683929443359375 2.3284912109375)" opacity="1" d="M17.37 4.66L0 4.66C0.59 4.52 1.17 4.38 1.75 4.24C6.94 2.94 12.14 1.32 17.37 0L17.37 4.66Z" /><path id="矩形 309" fill-rule="evenodd" style="fill:#A9DDF3" transform="translate(254.7386932373047 188.04629516601562)  rotate(0 15.352702140808105 4.8059983253479)" opacity="1" d="M0,9.61L30.71,9.61L30.71,0L0,0L0,9.61Z " /><path id="矩形 310" fill-rule="evenodd" style="fill:#A9DDF3" transform="translate(156.7732391357422 90.8331069946289)  rotate(0 15.352702140808105 4.8059797286987305)" opacity="1" d="M0,9.61L30.71,9.61L30.71,0L0,0L0,9.61Z " /><path id="路径 1166" fill-rule="evenodd" style="fill:#A9DDF3" transform="translate(0 48.115478515624545)  rotate(0 12.106460571289055 4.805908203125)" opacity="1" d="M4.27 0L24.21 0L24.21 9.61L0 9.61C1.06 6.24 2.49 2.99 4.27 0Z" /><path id="矩形 311" fill-rule="evenodd" style="fill:#A9DDF3" transform="translate(32.68108367919923 110.94966888427734)  rotate(0 15.352681159973145 4.8059797286987305)" opacity="1" d="M0,9.61L30.71,9.61L30.71,0L0,0L0,9.61Z " /><path id="路径 1167" fill-rule="evenodd" style="fill:#A9DDF3" transform="translate(31.06144714355473 124.40515136718705)  rotate(0 7.7166061401367045 4.806030273437955)" opacity="1" d="M0 0L15.43 0L15.43 9.61L7.78 9.61C5.58 6.2 2.9 3.03 0 0Z" /><path id="路径 1168" fill-rule="evenodd" style="fill:#A9DDF3" transform="translate(16.87863159179686 110.94982910156205)  rotate(0 6.183868408203139 4.805908203125)" opacity="1" d="M0 0L12.37 0L12.37 9.61L10.33 9.61C7.16 6.57 3.86 3.64 0.73 0.69C0.48 0.46 0.24 0.23 0 0Z" /><path id="矩形 312" fill-rule="evenodd" style="fill:#A9DDF3" transform="translate(10.75556850433351 61.57088851928711)  rotate(0 15.352681159973145 4.8059797286987305)" opacity="1" d="M0,9.61L30.71,9.61L30.71,0L0,0L0,9.61Z " /><path id="路径 1169" fill-rule="evenodd" style="fill:#A9DDF3" transform="translate(315.305419921875 36.659912109375)  rotate(0 14.53985595703125 4.805908203125)" opacity="1" d="M27.47 9.61L0 9.61L0 0L29.08 0C28.95 3.26 28.41 6.5 27.47 9.61Z" /><path id="矩形 313" fill-rule="evenodd" style="fill:#A9DDF3" transform="translate(192.11521911621094 149.52748107910156)  rotate(0 15.352681159973145 4.8059797286987305)" opacity="1" d="M0,9.61L30.71,9.61L30.71,0L0,0L0,9.61Z " /><path id="矩形 314" fill-rule="evenodd" style="fill:#A9DDF3" transform="translate(209.00689697265625 136.07196044921875)  rotate(0 15.352681159973145 4.8059797286987305)" opacity="1" d="M0,9.61L30.71,9.61L30.71,0L0,0L0,9.61Z " /><path id="矩形 315" fill-rule="evenodd" style="fill:#A9DDF3" transform="translate(139.52505493164062 77.37757873535156)  rotate(0 15.352681159973145 4.8059797286987305)" opacity="1" d="M0,9.61L30.71,9.61L30.71,0L0,0L0,9.61Z " /><path id="路径 1170" fill-rule="evenodd" style="fill:#A9DDF3" transform="translate(271.9869384765625 201.501953125)  rotate(0 15.35260009765625 4.805908203125)" opacity="1" d="M0 9.61L0 0L30.71 0L30.71 0.95C27.47 3.77 24.27 6.62 21.22 9.61L0 9.61Z" /><path id="矩形 316" fill-rule="evenodd" style="fill:#A9DDF3" transform="translate(180.75006103515625 36.621490478515625)  rotate(0 15.3526611328125 4.8059983253479)" opacity="1" d="M0,9.61L30.71,9.61L30.71,0L0,0L0,9.61Z " /></g><path id="路径 1171" fill-rule="evenodd" style="fill:#A9DDF3" transform="translate(35.27432692565486 135.40471595315125)  rotate(0 66.66941833496095 6.033142089843523)" opacity="1" d="M133.34 12.07L10.45 12.07C7.55 7.73 3.89 3.78 0 0L133.34 0L133.34 12.07Z" /><path id="路径 1172" fill-rule="evenodd" style="fill:#E3F2F9" transform="translate(35.27432692565486 135.40471595315125)  rotate(0 66.66941833496095 2.3270874023435226)" opacity="1" d="M133.34 4.65L4.55 4.65C3.09 3.07 1.56 1.52 0 0L133.34 0L133.34 4.65Z" /><g opacity="1" transform="translate(101.96306288756895 65.96246284035783)  rotate(0 6.763768672943115 34.65287399291992)"><path id="矩形 317" fill-rule="evenodd" style="fill:#7DCCED" transform="translate(0 0)  rotate(0 6.763768672943115 34.65287399291992)" opacity="1" d="M0,69.31L13.53,69.31L13.53,0L0,0L0,69.31Z " /><path id="矩形 318" fill-rule="evenodd" style="fill:#A9DDF3" transform="translate(0 9.549091339111328)  rotate(0 6.763768672943115 1.7240269184112549)" opacity="1" d="M0,3.45L13.53,3.45L13.53,0L0,0L0,3.45Z " /><path id="矩形 319" fill-rule="evenodd" style="fill:#A9DDF3" transform="translate(0 50.131874084472656)  rotate(0 6.763768672943115 1.7240269184112549)" opacity="1" d="M0,3.45L13.53,3.45L13.53,0L0,0L0,3.45Z " /><path id="矩形 320" fill-rule="evenodd" style="fill:#A9DDF3" transform="translate(0 55.43660354614258)  rotate(0 6.763768672943115 1.7241803407669067)" opacity="1" d="M0,3.45L13.53,3.45L13.53,0L0,0L0,3.45Z " /><path id="矩形 321" fill-rule="evenodd" style="fill:#A9DDF3" transform="translate(0 15.408025741577148)  rotate(0 6.763768672943115 1.7240269184112549)" opacity="1" d="M0,3.45L13.53,3.45L13.53,0L0,0L0,3.45Z " /></g><g opacity="1" transform="translate(124.09965956725645 65.96246284035783)  rotate(0 4.412161350250244 34.65287399291992)"><path id="矩形 322" fill-rule="evenodd" style="fill:#52BBE7" transform="translate(0 0)  rotate(0 4.412161350250244 34.65287399291992)" opacity="1" d="M0,69.31L8.82,69.31L8.82,0L0,0L0,69.31Z " /><path id="矩形 323" fill-rule="evenodd" style="fill:#A9DDF3" transform="translate(0 9.549091339111328)  rotate(0 4.412161350250244 1.7240269184112549)" opacity="1" d="M0,3.45L8.82,3.45L8.82,0L0,0L0,3.45Z " /><path id="矩形 324" fill-rule="evenodd" style="fill:#A9DDF3" transform="translate(0 50.131874084472656)  rotate(0 4.412161350250244 1.7240269184112549)" opacity="1" d="M0,3.45L8.82,3.45L8.82,0L0,0L0,3.45Z " /><path id="矩形 325" fill-rule="evenodd" style="fill:#A9DDF3" transform="translate(0 55.43660354614258)  rotate(0 4.412161350250244 1.7241803407669067)" opacity="1" d="M0,3.45L8.82,3.45L8.82,0L0,0L0,3.45Z " /><path id="矩形 326" fill-rule="evenodd" style="fill:#A9DDF3" transform="translate(0 15.408025741577148)  rotate(0 4.412161350250244 1.7240269184112549)" opacity="1" d="M0,3.45L8.82,3.45L8.82,0L0,0L0,3.45Z " /></g><g opacity="1" transform="translate(114.9602171234088 78.95961707619767)  rotate(0 4.46156120300293 28.154321670532227)"><path id="矩形 327" fill-rule="evenodd" style="fill:#A9DDF3" transform="translate(0 0)  rotate(0 4.46156120300293 28.154321670532227)" opacity="1" d="M0,56.31L8.92,56.31L8.92,0L0,0L0,56.31Z " /><path id="矩形 328" fill-rule="evenodd" style="fill:#52BBE7" transform="translate(0 7.758259296417236)  rotate(0 4.46156120300293 1.4007551670074463)" opacity="1" d="M0,2.8L8.92,2.8L8.92,0L0,0L0,2.8Z " /><path id="矩形 329" fill-rule="evenodd" style="fill:#52BBE7" transform="translate(0 40.730323791503906)  rotate(0 4.46156120300293 1.400889277458191)" opacity="1" d="M0,2.8L8.92,2.8L8.92,0L0,0L0,2.8Z " /><path id="矩形 330" fill-rule="evenodd" style="fill:#52BBE7" transform="translate(0 45.04047775268555)  rotate(0 4.46156120300293 1.4007551670074463)" opacity="1" d="M0,2.8L8.92,2.8L8.92,0L0,0L0,2.8Z " /><path id="矩形 331" fill-rule="evenodd" style="fill:#52BBE7" transform="translate(0 12.518471717834473)  rotate(0 4.46156120300293 1.4007551670074463)" opacity="1" d="M0,2.8L8.92,2.8L8.92,0L0,0L0,2.8Z " /></g><g opacity="1" transform="translate(133.2391248992877 68.91042274026017)  rotate(0 10.325332641601562 33.17890930175781)"><path id="矩形 332" fill-rule="evenodd" style="fill:#7DCCED" transform="translate(0 0)  rotate(0 10.325332641601562 33.17890930175781)" opacity="1" d="M0,66.36L20.65,66.36L20.65,0L0,0L0,66.36Z " /><path id="矩形 333" fill-rule="evenodd" style="fill:#D4EEF9" transform="translate(0 9.142945289611816)  rotate(0 10.325332641601562 1.650684118270874)" opacity="1" d="M0,3.3L20.65,3.3L20.65,0L0,0L0,3.3Z " /><path id="矩形 334" fill-rule="evenodd" style="fill:#D4EEF9" transform="translate(0 47.99938201904297)  rotate(0 10.325332641601562 1.6508182287216187)" opacity="1" d="M0,3.3L20.65,3.3L20.65,0L0,0L0,3.3Z " /><path id="矩形 335" fill-rule="evenodd" style="fill:#D4EEF9" transform="translate(0 53.07876205444336)  rotate(0 10.325332641601562 1.6508182287216187)" opacity="1" d="M0,3.3L20.65,3.3L20.65,0L0,0L0,3.3Z " /><path id="矩形 336" fill-rule="evenodd" style="fill:#D4EEF9" transform="translate(0 14.752626419067383)  rotate(0 10.325332641601562 1.6507991552352905)" opacity="1" d="M0,3.3L20.65,3.3L20.65,0L0,0L0,3.3Z " /></g><path id="路径 1173" fill-rule="evenodd" style="fill:#7DCCED" transform="translate(27.33476698913148 91.7338175156508)  rotate(0 14.862800598144503 21.9439697265625)" opacity="1" d="M29.73 43.89L8.16 43.89C5.49 41.29 2.72 38.77 0 36.27L0 0L29.73 0L29.73 43.89Z" /><path id="路径 1174" fill-rule="evenodd" style="fill:#52BBE7" transform="translate(27.33476698913148 91.7336954453383)  rotate(0 14.86276245117186 17.4583740234375)" opacity="1" d="M0 0L29.73 0L29.73 1L0 34.92L0 0Z" /><path id="矩形 337" fill-rule="evenodd" style="fill:#A9DDF3" transform="translate(43.74767363585997 80.6941446640883)  rotate(0 18.601299285888672 27.463851928710938)" opacity="1" d="M0,54.93L37.2,54.93L37.2,0L0,0L0,54.93Z " /><path id="矩形 338" fill-rule="evenodd" style="fill:#7DCCED" transform="translate(43.74767363585997 80.6941446640883)  rotate(0 3.920175790786743 27.463851928710938)" opacity="1" d="M0,54.93L7.84,54.93L7.84,0L0,0L0,54.93Z " /><path id="矩形 339" fill-rule="evenodd" style="fill:#FFFFFF" transform="translate(43.74767363585997 95.30357306985002)  rotate(0 18.601299285888672 3.637281894683838)" opacity="1" d="M0,7.27L37.2,7.27L37.2,0L0,0L0,7.27Z " /><g opacity="1" transform="translate(206.81355727233458 24.34643119362977)  rotate(0 64.70184326171875 34.15759277343727)"><path id="路径 1175" fill-rule="evenodd" style="fill:#A9DDF3" transform="translate(0 56.249023437499545)  rotate(0 64.70184326171875 6.0330810546875)" opacity="1" d="M0 0L129.4 0C125.09 3.96 120.72 7.96 116.5 12.07L0 12.07L0 0Z" /><path id="路径 1176" fill-rule="evenodd" style="fill:#E3F2F9" transform="translate(0 56.249023437499545)  rotate(0 64.70184326171875 2.3272705078125)" opacity="1" d="M0 0L129.4 0C127.72 1.55 126.03 3.09 124.35 4.65L0 4.65L0 0Z" /><g opacity="1" transform="translate(86.06023011187665 0)  rotate(0 10.028522534915055 28.234985351562045)"><g opacity="1" transform="translate(0 0)  rotate(0 10.028522534915055 28.234985351562045)"><path id="路径 1177" fill-rule="evenodd" style="fill:#A9DDF3" transform="translate(0 0)  rotate(0 10.028522534915055 28.234985351562045)" opacity="1" d="M17.21 0L20.05 50.58C20.23 53.78 17.68 56.47 14.48 56.47L5.58 56.47C2.37 56.47 -0.17 53.78 0.01 50.58L2.85 0L17.21 0Z" /></g><path id="路径 1178" fill-rule="evenodd" style="fill:#D4EEF9" transform="translate(8.136219167908507 0)  rotate(0 4.9032742325676395 28.234985351562045)" opacity="1" d="M4.23 56.47L0 56.47C3.2 56.47 5.75 53.78 5.57 50.58L2.73 0L6.96 0L9.8 50.58C9.98 53.78 7.43 56.47 4.23 56.47Z" /></g><g opacity="1" transform="translate(67.87423706054688 43.15102005004792)  rotate(0 13.31890869140625 6.659423828125)"><path id="路径 1179" fill-rule="evenodd" style="fill:#7DCCED" transform="translate(0 0)  rotate(0 13.31890869140625 6.659423828125)" opacity="1" d="M13.32 0C20.67 0 26.64 5.96 26.64 13.32L0 13.32C0 5.96 5.96 0 13.32 0Z" /><path id="路径 1180" fill-rule="evenodd" style="fill:#D4EEF9" transform="translate(2.29779052734375 2.1142578125)  rotate(0 10.77197265625 5.602294921875)" opacity="1" d="M1.42 11.2L0 11.2C1.02 4.86 6.5 0 13.14 0C16.31 0 19.21 1.14 21.5 3C21.51 3.02 21.53 3.04 21.54 3.06C18.79 1.29 15.38 0.52 11.91 1.17C6.57 2.17 2.59 6.24 1.42 11.2Z" /></g><g opacity="1" transform="translate(11.98253059387207 25.654788970947266)  rotate(0 17.033055543899536 15.362981796264421)"><g opacity="1" transform="translate(14.661856651306152 14.213390350340887)  rotate(0 9.067108154296875 8.256286621093977)"><g opacity="1" transform="translate(0 0)  rotate(0 9.067108154296875 8.256286621093977)"><path id="路径 1181" fill-rule="evenodd" style="fill:#52BBE7" transform="translate(0 0)  rotate(0 9.067108154296875 8.256286621093977)" opacity="1" d="M0 16.51L14.27 0L18.13 16.51L0 16.51Z" /></g></g><g opacity="1" transform="translate(2.3711037635803223 0)  rotate(0 15.847503662109375 15.362976074218523)"><g opacity="1" transform="translate(0 0)  rotate(0 15.847503662109375 15.362976074218523)"><path id="路径 1182" fill-rule="evenodd" style="fill:#A9DDF3" transform="translate(0 0)  rotate(0 15.847503662109375 15.362976074218523)" opacity="1" d="M9.48 0L31.7 0L22.21 30.73L0 30.73L9.48 0Z" /></g></g><g opacity="1" transform="translate(0 0)  rotate(0 15.847503662109375 15.362976074218523)"><g opacity="1" transform="translate(0 0)  rotate(0 15.847503662109375 15.362976074218523)"><path id="路径 1183" fill-rule="evenodd" style="fill:#7DCCED" transform="translate(0 0)  rotate(0 15.847503662109375 15.362976074218523)" opacity="1" d="M9.48 0L31.7 0L22.21 30.73L0 30.73L9.48 0Z" /></g></g><g opacity="1" transform="translate(4.154850482940674 4.027652740478061)  rotate(0 11.692657470703125 11.335266113281477)"><g opacity="1" transform="translate(0 0)  rotate(0 11.692657470703125 11.335266113281477)"><path id="路径 1184" fill-rule="evenodd" style="fill:#D4EEF9" transform="translate(0 0)  rotate(0 11.692657470703125 11.335266113281477)" opacity="1" d="M7 0L23.39 0L16.39 22.67L0 22.67L7 0Z" /></g></g><g opacity="1" transform="translate(4.154850482940674 4.027652740478061)  rotate(0 8.285186767578125 11.335266113281477)"><g opacity="1" transform="translate(0 0)  rotate(0 8.285186767578125 11.335266113281477)"><path id="路径 1185" fill-rule="evenodd" style="fill:#52BBE7" transform="translate(0 0)  rotate(0 8.285186767578125 11.335266113281477)" opacity="1" d="M0 22.67L7 0L8 0L1.19 22.08L16.57 22.08L16.39 22.67L0 22.67Z" /></g></g></g></g></g><g opacity="1" transform="translate(265.92609084167054 208.7552255967055)  rotate(0 16.512207984924316 12.927795410156477)"><g opacity="1" transform="translate(0 2.2452850341801422)  rotate(0 5.42034912109375 6.748352050781023)"><g opacity="1" transform="translate(0 0)  rotate(0 5.42034912109375 6.748352050781023)"><g opacity="1" transform="translate(0 0)  rotate(0 5.42034912109375 6.748352050781023)"><path id="路径 1234" fill-rule="evenodd" style="fill:#4D5068" transform="translate(0 0)  rotate(0 5.42034912109375 6.748352050781023)" opacity="1" d="M10.84 10.64L10.84 13.5L6.75 13.5C3.03 13.5 0 10.47 0 6.75C0 3.03 3.03 0 6.75 0L9.38 0L9.38 2.86L6.75 2.86C4.6 2.86 2.86 4.6 2.86 6.75C2.86 8.89 4.6 10.64 6.75 10.64L10.84 10.64Z" /></g></g></g><g opacity="1" transform="translate(8.147218704223633 0)  rotate(0 12.4385986328125 12.927795410156477)"><g opacity="1" transform="translate(0 0)  rotate(0 12.4385986328125 12.927795410156477)"><path id="路径 1235" fill-rule="evenodd" style="fill:#4D5068" transform="translate(0 0)  rotate(0 12.4385986328125 12.927795410156477)" opacity="1" d="M0 7.56L0 0L24.88 0L24.88 7.56C24.88 12.94 22.86 18.12 19.22 22.08L19.22 25.86L5.66 25.86L5.66 22.08C2.02 18.12 0 12.94 0 7.56Z" /></g></g><g opacity="0.29" transform="translate(22.24575424194336 0)  rotate(0 4.2930908203125 12.927795410156477)"><g opacity="1" transform="translate(0 0)  rotate(0 4.2930908203125 12.927795410156477)"><path id="路径 1236" fill-rule="evenodd" style="fill:#FFFFFF" transform="translate(0 0)  rotate(0 4.2930908203125 12.927795410156477)" opacity="1" d="M8.59 0L8.59 7.56C8.59 12.94 6.56 18.12 2.92 22.08L2.92 25.86L0 25.86L0 22.08C3.64 18.12 5.66 12.94 5.66 7.56L5.66 0L8.59 0Z" /></g></g></g><g opacity="1" transform="translate(227.40356886901426 104.7227091172133)  rotate(0 43.673892974853516 18.665868759155273)"><path id="矩形 340" fill-rule="evenodd" style="fill:#FFFFFF" transform="translate(0 0)  rotate(0 43.673892974853516 18.665868759155273)" opacity="1" d="M4.31,37.33L83.04,37.33C85.42,37.33 87.35,35.41 87.35,33.03L87.35,4.31C87.35,3.17 86.9,2.07 86.09,1.26C85.28,0.45 84.18,0 83.04,0L4.31,0C3.17,0 2.07,0.45 1.26,1.26C0.45,2.07 0,3.17 0,4.31L0,33.03C0,35.41 1.93,37.33 4.31,37.33Z " /><path id="路径 1237" fill-rule="evenodd" style="fill:#1C75BC" transform="translate(7.16839599609375 5.349243164062955)  rotate(0 4.409576416015625 4.409301757812045)" opacity="1" d="M0 4.41C0 1.97 1.97 0 4.41 0C6.85 0 8.82 1.97 8.82 4.41C8.82 6.84 6.85 8.82 4.41 8.82C1.97 8.82 0 6.84 0 4.41Z" /><path id="矩形 341" fill-rule="evenodd" style="fill:#D1E1F2" transform="translate(18.362836837768555 6.046365737915039)  rotate(0 31.688949584960938 0.5938110947608948)" opacity="1" d="M0,1.19L63.38,1.19L63.38,0L0,0L0,1.19Z " /><path id="矩形 342" fill-rule="evenodd" style="fill:#D1E1F2" transform="translate(18.362836837768555 9.50438404083252)  rotate(0 31.688949584960938 0.5937919616699219)" opacity="1" d="M0,1.19L63.38,1.19L63.38,0L0,0L0,1.19Z " /><path id="矩形 343" fill-rule="evenodd" style="fill:#1C75BC" transform="translate(18.362836837768555 12.962496757507324)  rotate(0 13.274917602539062 0.5938302278518677)" opacity="1" d="M0,1.19L26.55,1.19L26.55,0L0,0L0,1.19Z " /><path id="路径 1238" fill-rule="evenodd" style="fill:#FF5722" transform="translate(7.16839599609375 22.395263671875)  rotate(0 4.409576416015625 4.409606933593523)" opacity="1" d="M0 4.41C0 1.97 1.97 0 4.41 0C6.85 0 8.82 1.97 8.82 4.41C8.82 6.85 6.85 8.82 4.41 8.82C1.97 8.82 0 6.85 0 4.41Z" /><path id="矩形 344" fill-rule="evenodd" style="fill:#D1E1F2" transform="translate(18.362836837768555 23.092538833618164)  rotate(0 31.688949584960938 0.5938302278518677)" opacity="1" d="M0,1.19L63.38,1.19L63.38,0L0,0L0,1.19Z " /><path id="矩形 345" fill-rule="evenodd" style="fill:#D1E1F2" transform="translate(18.362836837768555 26.55051040649414)  rotate(0 31.688949584960938 0.5938302278518677)" opacity="1" d="M0,1.19L63.38,1.19L63.38,0L0,0L0,1.19Z " /><path id="矩形 346" fill-rule="evenodd" style="fill:#FF5722" transform="translate(18.362836837768555 30.008575439453125)  rotate(0 13.274917602539062 0.5938877463340759)" opacity="1" d="M0,1.19L26.55,1.19L26.55,0L0,0L0,1.19Z " /></g><g opacity="1" transform="translate(127.00000441588918 163.0000528672133)  rotate(0 72 36)"><text><tspan x="0" y="60" font-size="72" line-height="0" fill="#FFFFFF" opacity="0.48" font-family="UbuntuMono-Bold" letter-spacing="0" >BJFU</tspan></text></g><g opacity="1" transform="translate(42.40741298577828 125.83639056592392)  rotate(0 46.42934187380635 54.38730776614034)"><path id="路径 1219" fill-rule="evenodd" style="fill:#4D5068" transform="translate(72.43005480901724 0)  rotate(0 7.40408560915705 13.353326969736258)" opacity="1" d="M12.31 0.47C12.61 0.2 12.98 -0.08 13.37 0.02C13.81 0.13 13.98 0.65 14.08 1.08C15.76 8.8 14.47 19.7 10.84 26.71L0 25.63C2.16 16.39 5.29 6.85 12.31 0.47Z" /><path id="路径 1220" fill-rule="evenodd" style="fill:#191C3C" transform="translate(74.49722399847036 1.9980357754100169)  rotate(0 6.369845990775957 12.354309082031477)" opacity="1" d="M11.95 0.2C12.02 0.13 12.1 0.06 12.19 0C13.59 7.64 12.27 17.97 8.77 24.71L0 23.84C2.15 15.09 5.31 6.23 11.95 0.2Z" /><path id="路径 1221" fill-rule="evenodd" style="fill:#4D5068" transform="translate(52.88745298909345 3.4611518276349216)  rotate(0 9.26676904961036 11.622812091075275)" opacity="1" d="M1.62 0.3C9.74 5.21 14.64 13.98 18.53 22.63L7.42 23.25C2.5 17.07 -0.17 9.14 0.01 1.24C0.02 0.79 0.09 0.26 0.5 0.07C0.86 -0.11 1.28 0.1 1.62 0.3Z" /><path id="路径 1222" fill-rule="evenodd" style="fill:#191C3C" transform="translate(55.78455812997538 7.552082267925243)  rotate(0 7.676477587567803 9.538955757649092)" opacity="1" d="M0.01 1.04C0.02 0.67 0.08 0.22 0.42 0.05C0.72 -0.09 1.07 0.08 1.36 0.26C8.03 4.29 12.12 11.44 15.35 18.55L5.9 19.08C1.99 13.96 -0.14 7.49 0.01 1.04Z" /><path id="路径 1223" fill-rule="evenodd" style="fill:#4D5068" transform="translate(22.417234549251702 29.057728158223426)  rotate(0 28.708413608886673 39.755865507912176)" opacity="1" d="M57.42 10.3L57.41 26.53C57.41 33.63 57.38 40.89 55.06 47.61C51.83 56.98 44.49 64.32 36.87 70.67C39.1 72.76 39.75 76.35 38.4 79.09C32.1217 79.6885 25.8985 79.5227 19.7244 79.3582C15.376 79.2423 11.0519 79.1271 6.75 79.28C6.64953 77.9826 7.27989 76.6318 7.90756 75.2868C8.71679 73.5527 9.52155 71.8281 8.75 70.24C8.1 68.91 6.53 68.38 5.25 67.65C0.52 64.96 -1.01 58.48 0.64 53.31C2.3 48.13 6.43 44.12 10.86 40.98C15.29 37.84 20.17 35.33 24.36 31.87C31.89 25.66 36.84 9.7 37.86 0L57.42 6.73L57.42 10.3Z" /><path id="路径 1224" fill-rule="evenodd" style="fill:#4D5068" transform="translate(72.14196887151724 63.09386097072297)  rotate(0 3.86464557179292 22.840377280778853)" opacity="1" d="M7.69 13.86C7.69 17.58 7.55 20.84 6.69 24.5C6.63152 24.7511 6.57233 25.0028 6.51302 25.2549C5.71035 28.6674 4.88679 32.1687 5.52 35.67C5.86 37.56 6.61 39.32 7.11 41.16C7.15544 41.3209 7.2057 41.4891 7.25736 41.6621C7.6264 42.8975 8.06684 44.3719 7.33 45.1C7.16 45.27 6.92 45.4 6.6 45.48C5.27034 45.7905 3.65824 45.6818 2.12344 45.5784C1.3843 45.5286 0.663095 45.48 0 45.48L0 0L7.69 0L7.69 13.86Z" /><path id="路径 1225" fill-rule="evenodd" style="fill:#30334F" transform="translate(62.94546618597036 63.09386097072297)  rotate(0 3.9499331998159732 22.83196799600921)" opacity="1" d="M7.69 0L7.69 9.89C7.69 11.5489 7.74131 13.2398 7.79299 14.9428C7.93757 19.7071 8.08505 24.5668 7.12 29.09C6.63 31.37 6.14 33.67 6.25 36C6.33 37.89 6.81 39.72 7.17 41.58C7.22316 41.8522 7.29215 42.1316 7.36091 42.4101C7.61549 43.4412 7.86689 44.4595 7.3 45.05C7.12 45.24 6.84 45.39 6.45 45.48C5.13662 45.7629 3.58282 45.6647 2.09107 45.5705C1.36798 45.5248 0.659477 45.48 0 45.48L0 0L7.69 0Z" /><path id="路径 1226" fill-rule="evenodd" style="fill:#4D5068" transform="translate(56.6172703976207 10.938575535773225)  rotate(0 18.120706674996 15.768016588747628)" opacity="1" d="M24.46 1.98C28.63 4.53 29.62 8.98 31.16 13.26C31.6782 14.6922 32.5227 16.1038 33.3758 17.5295C34.8932 20.0657 36.4376 22.647 36.22 25.47C36.18 25.95 36.1 26.43 35.96 26.91C35.26 29.27 33.16 31.23 30.72 31.5C29.82 31.6 28.92 31.48 28.03 31.36C18.88 30.16 8.3 29.97 2.49 21.52C-0.05 17.81 -0.87 12.77 1.08 8.72C4.85 0.86 17.22 -2.45 24.46 1.98Z" /><path id="路径 1227" fill-rule="evenodd" style="fill:#4D5068" transform="translate(0 91.17032964208784)  rotate(0 16.003819396410847 7.972768629558573)" opacity="1" d="M17.35 15.74C14.34 16.06 11.25 16.08 8.33 15.27C5.41 14.46 2.66 12.76 1.05 10.19C0.4 9.15 -0.07 7.94 0.01 6.71C0.09 5.38 1.66 1.61 2.68 0.65C4.82 -1.36 6.75 1.74 6.51 3.79C7.33 3.07 8.58 2.84 9.55 3.32C10.53 3.8 11.11 5.03 10.75 6.06L13.33 5.01C14.73 4.44 16.52 3.93 17.61 4.99C18.05 5.41 18.27 6 18.64 6.47C20.61 8.96 23.42 6 24.33 4.04C24.54 3.57 24.72 3.06 25.1 2.71C25.7251 2.1385 26.5876 2.21909 27.4745 2.30196C28.0774 2.3583 28.6915 2.41569 29.25 2.27L31.92 3.19C32.48 6.75 30.42 10.34 27.5 12.44C24.58 14.54 20.93 15.37 17.35 15.74Z" /><path id="路径 1228" fill-rule="evenodd" style="fill:#191C3C" transform="translate(52.553308007002045 84.24547229884843)  rotate(0 4.163852526984158 9.38037109375)" opacity="1" d="M8.33 18.76L8.25 18.52C8.2 18.36 8.13 18.13 7.99 17.86C7.88 17.58 7.68 17.26 7.46 16.91C7.22 16.56 6.94 16.19 6.59 15.8C6.42 15.6 6.24 15.4 6.04 15.21C5.85 15 5.65 14.8 5.43 14.59C5 14.18 4.54 13.74 4.07 13.28C3.59 12.83 3.09 12.35 2.63 11.82C2.51 11.68 2.39 11.56 2.28 11.41L1.93 10.98C1.83 10.83 1.73 10.69 1.63 10.54L1.56 10.44C1.52 10.37 1.51 10.35 1.48 10.31C1.43 10.23 1.38 10.15 1.34 10.07C0.98 9.44 0.69 8.77 0.47 8.09C0.24 7.4 0.11 6.71 0.04 6.03C-0.03 5.35 -0.01 4.68 0.09 4.06C0.14 3.74 0.21 3.45 0.3 3.16C0.39 2.88 0.5 2.61 0.62 2.37C1.11 1.38 1.81 0.74 2.34 0.41C2.6 0.24 2.83 0.15 2.98 0.09L3.22 0C3.22 0 3.14 0.04 3 0.13C2.86 0.21 2.66 0.35 2.43 0.54C1.98 0.93 1.41 1.61 1.05 2.55C0.95 2.79 0.88 3.04 0.82 3.31C0.77 3.57 0.72 3.85 0.69 4.13C0.64 4.71 0.66 5.32 0.75 5.95C0.83 6.57 1 7.21 1.21 7.84C1.42 8.47 1.7 9.09 2.04 9.67L2.17 9.89L2.23 9.99L2.3 10.1C2.4 10.24 2.49 10.39 2.59 10.53L2.89 10.92C2.99 11.05 3.11 11.18 3.21 11.31C3.66 11.81 4.11 12.31 4.57 12.78C5.03 13.25 5.46 13.72 5.87 14.17C6.28 14.63 6.65 15.07 6.96 15.51C7.28 15.94 7.53 16.37 7.73 16.76C7.92 17.15 8.06 17.5 8.14 17.81C8.24 18.1 8.26 18.35 8.29 18.51L8.33 18.76Z" /><path id="路径 1229" fill-rule="evenodd" style="fill:#191C3C" transform="translate(85.16862890051158 32.22782523251203)  rotate(0 3.7712616383846864 2.5840830441919707)" opacity="1" d="M2 4.93C1.13 4.62 0.27 4.03 0.06 3.14C-0.74 -0.31 6.81 -1.23 7.48 1.97C8.09 4.85 3.91 5.62 2 4.93Z" /><path id="路径 1230" fill-rule="evenodd" style="fill:#FF5722" transform="translate(55.56363024847036 42.474598275410926)  rotate(0 12.133575439453097 2.4270629882810226)" opacity="1" d="M1.91 0L24.27 0L24.27 4.85L0 4.85L1.91 0Z" /><path id="路径 1231" fill-rule="evenodd" style="fill:#FFFFFF" transform="translate(58.419697000070244 47.90706156247529)  rotate(0 10.705450510918809 25.90852421584259)" opacity="1" d="M21.41 0.08L21.41 7.68C21.4 14.78 21.38 22.04 19.06 28.76C15.83 38.14 8.49 45.47 0.87 51.82C0.87 51.7008 0.799091 51.523 0.697768 51.2689C0.305905 50.2862 -0.540867 48.1627 0.5 43.88C2.67 35.02 12.03 29.07 13.46 20.06C13.7867 17.9726 13.6566 15.8637 13.5263 13.752C13.4212 12.0499 13.3161 10.346 13.45 8.65C13.75 4.86 15.87 0.67 19.63 0.07C20.23 -0.03 20.83 -0.02 21.41 0.08Z" /><path id="路径 1232" fill-rule="evenodd" style="fill:#4D5068" transform="translate(62.94546618597036 63.09386097072297)  rotate(0 3.9499331998159732 22.83196799600921)" opacity="1" d="M6.25 36C6.33 37.89 6.81 39.72 7.17 41.58C7.22316 41.8522 7.29215 42.1316 7.36091 42.4101C7.61549 43.4412 7.86689 44.4595 7.3 45.05C7.12 45.24 6.84 45.39 6.45 45.48C5.13662 45.7629 3.58282 45.6647 2.09107 45.5705C1.36798 45.5248 0.659477 45.48 0 45.48L0 0L7.69 0L7.69 9.89C7.69 11.5489 7.74131 13.2398 7.79299 14.9428C7.93757 19.7071 8.08505 24.5668 7.12 29.09C6.63 31.37 6.14 33.67 6.25 36Z" /><path id="椭圆 68" fill-rule="evenodd" style="fill:#FEC55E" transform="translate(74.7380305780602 47.328773843037425)  rotate(0 4.555025577545166 5.645160675048828)" opacity="1" d="M4.56,0C2.04,0 0,2.53 0,5.65C0,8.76 2.04,11.29 4.56,11.29C7.07,11.29 9.11,8.76 9.11,5.65C9.11,2.53 7.07,0 4.56,0Z " /><path id="路径 1233" fill-rule="evenodd" style="fill:#191C3C" transform="translate(58.519623900814054 31.172718392598426)  rotate(0 6.139999389648466 4.228149414062045)" opacity="1" d="M5.61 4.9C6 5.13 6.43 5.35 6.84 5.56C7.25 5.76 7.66 5.97 8.06 6.16C8.87 6.53 9.63 6.88 10.28 7.18C10.61 7.32 10.9 7.46 11.17 7.59C11.43 7.71 11.67 7.82 11.85 7.94C12.04 8.06 12.15 8.2 12.21 8.3C12.27 8.4 12.28 8.46 12.28 8.46C12.28 8.46 12.25 8.4 12.17 8.32C12.1 8.24 11.96 8.16 11.78 8.08C11.59 8.01 11.34 7.96 11.06 7.88C10.78 7.8 10.46 7.72 10.12 7.61C9.77 7.51 9.4 7.39 9.01 7.26Q8.41 7.065 7.78 6.81C7.36 6.64 6.93 6.47 6.5 6.26C6.06 6.06 5.63 5.84 5.2 5.6C4.79 5.36 4.37 5.1 3.97 4.83C3.57 4.56 3.21 4.26 2.86 3.96C2.16 3.36 1.58 2.72 1.15 2.13C0.71 1.54 0.43 1 0.25 0.61C0.16 0.42 0.1 0.27 0.06 0.16C0.02 0.06 0 0 0 0C0 0 0.03 0.05 0.1 0.14C0.17 0.23 0.26 0.37 0.39 0.53C0.64 0.87 1.01 1.33 1.5 1.83C1.75 2.09 2.03 2.34 2.32 2.61C2.63 2.88 2.96 3.14 3.3 3.41C3.65 3.67 4.03 3.92 4.41 4.18Q4.98 4.555 5.61 4.9Z" /></g></g></svg>