<svg xmlns="http://www.w3.org/2000/svg" xmlns:xlink="http://www.w3.org/1999/xlink" width="351.7533324588344" height="234.61077962555908" viewBox="0 0 351.7533324588344 234.61077962555908" fill="none"><defs><linearGradient id="linear_0" x1="0.000007655235378933867%" y1="49.99983310699463%" x2="100.00001192092896%" y2="49.99983310699463%" gradientUnits="objectBoundingBox"><stop offset="0" stop-color="#E3EDFE" stop-opacity="1" /><stop offset="1" stop-color="#B3CDFA" stop-opacity="1" /></linearGradient><linearGradient id="linear_1" x1="-0.000285775263364485%" y1="50%" x2="99.99972581863403%" y2="50%" gradientUnits="objectBoundingBox"><stop offset="0" stop-color="#E3EDFE" stop-opacity="1" /><stop offset="1" stop-color="#B3CDFA" stop-opacity="1" /></linearGradient></defs><g opacity="1" transform="translate(0 0)  rotate(0 175.8766662294172 117.30538981277954)"><g opacity="1" transform="translate(0 0)  rotate(0 175.8766662294172 117.30538981277954)"><g opacity="1" transform="translate(0 0)  rotate(0 175.8766002007494 117.30538981277954)"><path id="路径 616" fill-rule="evenodd" style="fill:#D4EEF9" transform="translate(0 0)  rotate(0 175.8766002007494 117.30538981277954)" opacity="1" d="M115.72 8.06C124.38 12.13 130.97 19.98 139.95 23.31C150.65 27.26 162.7 24.03 172.9 18.94C183.11 13.85 192.42 6.94 203.09 2.93C213.77 -1.07 226.74 -1.63 235.7 5.42C239.11 8.09 241.7 11.68 245.06 14.41C254.92 22.39 269.2 21.45 281.51 18.37C284.155 17.7078 286.801 16.9633 289.453 16.2176C299.132 13.4951 308.867 10.7568 318.75 11.95C331.22 13.46 342.68 21.66 348.13 32.98C353.58 44.3 352.83 58.38 346.23 69.06C341.3 77.03 333.62 82.85 327.37 89.83C321.12 96.81 316.07 106.13 318.25 115.25C319.59 120.88 323.48 125.49 326.98 130.11C336.1 142.13 343.55 156.71 341.78 171.7C340.17 185.26 331.27 196.84 321.43 206.32C312.87 214.57 303.29 221.68 295.49 230.54C293.2 233.14 289.9 234.61 286.44 234.61L80.95 234.61C64.19 226.83 52.43 204.47 51.63 186C51.491 182.746 51.6625 179.471 51.8339 176.201C52.1185 170.768 52.4024 165.348 51.26 160.06C48.17 145.73 35.62 135.81 24.94 125.77C13.07 114.62 2.22 100.95 0.24 84.79C-1.73 68.63 8.43 50.19 24.59 48.17C26.5464 47.9278 28.5223 47.9221 30.4965 47.9164C32.7605 47.9098 35.0224 47.9033 37.25 47.54C51.53 45.23 59.23 30.11 69.26 19.68C81.08 7.4 100.29 0.81 115.72 8.06Z" /></g><g opacity="0.5" transform="translate(11.474810595590952 36.29114232697509)  rotate(0 159.4306640625 93.91423654556274)"><path id="矩形 142" fill-rule="evenodd" style="fill:#A9DDF3" transform="translate(56.81652069091797 87.7904052734375)  rotate(0 15.352681159973145 4.8059983253479)" opacity="1" d="M0,9.61L30.71,9.61L30.71,0L0,0L0,9.61Z " /><path id="路径 617" fill-rule="evenodd" style="fill:#A9DDF3" transform="translate(31.309326171875 0)  rotate(0 11.4737548828125 4.805877685546875)" opacity="1" d="M8.86 3.58C9.09 3.37 9.32 3.16 9.54 2.94C9.57 2.92 9.59 2.89 9.62 2.87C10.31 2.2 10.98 1.52 11.64 0.81L11.73 0.72L12.39 0L22.95 0L22.95 9.61L0 9.61C3.23 8.21 6.11 6.12 8.79 3.65C8.81 3.63 8.84 3.61 8.86 3.58Z" /><path id="路径 618" fill-rule="evenodd" style="fill:#A9DDF3" transform="translate(299.41748046875 160.34033203125)  rotate(0 9.721923828125 4.806060791015625)" opacity="1" d="M19.44 0C16.73 3.41 13.72 6.62 10.62 9.61L0 9.61L0 0L19.44 0Z" /><path id="矩形 143" fill-rule="evenodd" style="fill:#A9DDF3" transform="translate(13.463994026184082 45.0742073059082)  rotate(0 15.352681159973145 4.8059797286987305)" opacity="1" d="M0,9.61L30.71,9.61L30.71,0L0,0L0,9.61Z " /><path id="矩形 144" fill-rule="evenodd" style="fill:#A9DDF3" transform="translate(77.43995666503906 4.805877685546875)  rotate(0 15.3526611328125 4.8059983253479)" opacity="1" d="M0,9.61L30.71,9.61L30.71,0L0,0L0,9.61Z " /><path id="路径 619" fill-rule="evenodd" style="fill:#A9DDF3" transform="translate(0 74.603271484375)  rotate(0 10.48388671875 4.805877685546875)" opacity="1" d="M20.97 9.61L8.15 9.61C5.24 6.57 2.48 3.37 0 0L20.97 0L20.97 9.61Z" /><path id="矩形 145" fill-rule="evenodd" style="fill:#A9DDF3" transform="translate(155.25889587402344 159.55433654785156)  rotate(0 15.352681159973145 4.805997848510742)" opacity="1" d="M0,9.61L30.71,9.61L30.71,0L0,0L0,9.61Z " /><path id="矩形 146" fill-rule="evenodd" style="fill:#A9DDF3" transform="translate(136.8719940185547 178.2164764404297)  rotate(0 15.3526611328125 4.8059983253479)" opacity="1" d="M0,9.61L30.71,9.61L30.71,0L0,0L0,9.61Z " /><path id="路径 620" fill-rule="evenodd" style="fill:#A9DDF3" transform="translate(12.755859374999545 88.80868530273432)  rotate(0 11.148559570312955 4.805892944335966)" opacity="1" d="M4.32 4.02L3.51 3.27C3.34 3.12 3.17 2.96 3 2.8C2.23 2.09 1.46 1.38 0.71 0.67C0.47 0.45 0.24 0.22 0 0L22.3 0L22.3 9.61L10.32 9.61C8.35 7.72 6.32 5.86 4.32 4.02Z" /><path id="矩形 147" fill-rule="evenodd" style="fill:#A9DDF3" transform="translate(62.087249755859375 178.2164764404297)  rotate(0 15.352681159973145 4.8059983253479)" opacity="1" d="M0,9.61L30.71,9.61L30.71,0L0,0L0,9.61Z " /><path id="矩形 148" fill-rule="evenodd" style="fill:#A9DDF3" transform="translate(94.56108856201172 20.997774124145508)  rotate(0 15.352681159973145 4.8059983253479)" opacity="1" d="M0,9.61L30.71,9.61L30.71,0L0,0L0,9.61Z " /><path id="矩形 149" fill-rule="evenodd" style="fill:#A9DDF3" transform="translate(116.6588134765625 159.55433654785156)  rotate(0 15.352681159973145 4.805997848510742)" opacity="1" d="M0,9.61L30.71,9.61L30.71,0L0,0L0,9.61Z " /></g><g opacity="1" transform="translate(13.641205782968882 30.42102323212643)  rotate(0 46.860107421875 31.6739959716797)"><path id="路径 621" fill-rule="evenodd" style="fill:#7DCCED" transform="translate(0 0)  rotate(0 46.860107421875 31.6739959716797)" opacity="1" d="M16.8526 17.4964C19.1178 17.4898 21.3824 17.4832 23.61 17.12C33.38 15.54 40.06 7.96 46.52 0L93.72 0L93.72 63.35L0 63.35L0 22.09C3.21 19.8 6.89 18.26 10.95 17.75C12.9017 17.5078 14.8774 17.5021 16.8526 17.4964Z" /><path id="路径 622" fill-rule="evenodd" style="fill:#CFECF9" transform="translate(5.3927001953125 4.949935913085966)  rotate(0 41.4677734375 26.723892211914062)" opacity="1" d="M11.4576 12.5464C13.7228 12.5398 15.9871 12.5333 18.22 12.17C25.92 10.92 31.7 5.95 36.97 0L82.94 0L82.94 53.45L0 53.45L0 14.21C1.76 13.53 3.61 13.04 5.55 12.8C7.50639 12.5578 9.48232 12.5521 11.4576 12.5464Z" /><path id="路径 623" fill-rule="evenodd" style="fill:#A9DDF3" transform="translate(35.6357421875 23.72033691406253)  rotate(0 17.0614013671875 11.279144287109347)" opacity="1" d="M0 0L34.12 0L34.12 22.56L0 0Z" /><path id="路径 624" fill-rule="evenodd" style="fill:#7DCCED" transform="translate(23.441894531250455 20.394744873046903)  rotate(0 17.061462402343523 11.279129028320312)" opacity="1" d="M34.12 22.56L0 22.56L0 0L34.12 22.56Z" /></g><g opacity="1" transform="translate(151.52156733997526 0)  rotate(0 100.11588255942956 94.2038120539905)"><path id="路径 625" fill-rule="evenodd" style="fill:#FFFFFF" transform="translate(0 0)  rotate(0 100.11578601318365 94.2038120539905)" opacity="1" d="M51.57 2.93C62.25 -1.07 75.22 -1.63 84.18 5.42C87.58 8.09 90.17 11.68 93.54 14.41C103.4 22.39 117.68 21.45 129.98 18.37C132.63 17.707 135.282 16.9614 137.938 16.2148C147.618 13.4932 157.35 10.7572 167.23 11.95C179.7 13.46 191.16 21.66 196.61 32.98C202.06 44.3 201.31 58.38 194.71 69.06C189.78 77.03 182.1 82.85 175.85 89.83C169.6 96.81 164.55 106.13 166.72 115.25C168.07 120.88 171.96 125.49 175.46 130.11C184.58 142.13 192.03 156.71 190.26 171.7C189.6 177.23 187.73 182.43 185.08 187.29C184.66 187.66 184.23 188.03 183.81 188.41L0 188.41L0 25.04C7.32 24.77 14.74 22.25 21.38 18.94C31.58 13.85 40.89 6.94 51.57 2.93Z" /><path id="路径 626" fill-rule="evenodd" style="fill:#A9DDF3" transform="translate(5.855957031250455 0.0008148802419327694)  rotate(0 37.43511962890602 90.23130530967032)" opacity="1" d="M0 24.37C5.36 23.37 10.66 21.37 15.53 18.94C25.73 13.85 35.04 6.93 45.71 2.93C55.09 -0.58 66.23 -1.44 74.87 3.17L74.87 180.46L0 180.46L0 24.37Z" /><path id="路径 627" fill-rule="evenodd" style="fill:#A9DDF3" transform="translate(88.22070312500091 9.213074547434076)  rotate(0 56.00553099692911 85.62518310546875)" opacity="1" d="M79.01 2.74C91.48 4.24 102.94 12.45 108.39 23.77C113.83 35.09 113.09 49.16 106.48 59.85C101.56 67.82 93.88 73.63 87.63 80.61C81.38 87.59 76.33 96.92 78.5 106.03C79.85 111.67 83.74 116.28 87.24 120.9C96.36 132.92 103.81 147.5 102.03 162.49C101.68 165.51 100.96 168.43 99.94 171.25L0 171.25L0 0C1.72 1.79 3.39 3.64 5.32 5.2C15.18 13.18 29.46 12.24 41.76 9.16C44.3833 8.50098 47.0088 7.76191 49.6386 7.02165C59.3392 4.29099 69.0973 1.54418 79.01 2.74Z" /><g opacity="1" transform="translate(5.855941772461392 83.47935819378989)  rotate(0 92.33161995427963 48.492037467593576)"><path id="路径 628" fill-rule="evenodd" style="fill:#7DCCED" transform="translate(82.36474609375045 0.8744252769840841)  rotate(0 51.149246907404404 48.054824829101534)" opacity="1" d="M0 96.11L0 0C5.4 0.86 10.67 2.41 15.5 4.96C21.58 8.17 26.75 12.82 31.89 17.39C47.97 31.7 66.55 46.42 87.86 46.59C96.69 58.45 103.77 72.7 102.03 87.35C101.68 90.37 100.96 93.29 99.94 96.11L0 96.11Z" /><path id="路径 629" fill-rule="evenodd" style="fill:#7DCCED" transform="translate(0 0)  rotate(0 37.43511962890602 48.492022208804514)" opacity="1" d="M19.04 24.99C25.24 19.98 30.45 13.8 37.01 9.28C47.21 2.24 60.01 -0.24 72.4 0.02C73.22 0.04 74.05 0.07 74.87 0.11L74.87 96.98L0 96.98L0 35.88C6.84 33.15 13.29 29.64 19.04 24.99Z" /></g></g></g><g opacity="1" transform="translate(40.2914609862155 171.29092488923095)  rotate(0 152.57916259765648 31.439422607421875)"><path id="路径 630" fill-rule="evenodd" style="fill:#4D5068" transform="translate(32.738159179687955 4.55548095703125)  rotate(0 10.614501953125 29.16168212890625)" opacity="1" d="M0 53.75L9.24 0.82L21.23 0L7.03 58.32C4.57 57.09 2.22 55.55 0 53.75Z" /><path id="路径 631" fill-rule="evenodd" style="fill:#4D5068" transform="translate(242.94848632812545 4.55548095703125)  rotate(0 10.050048828125 26.752227783203125)" opacity="1" d="M20.1 46.72C17.76 48.9 15.48 51.14 13.32 53.5L0 0L11.99 0.82L20.1 46.72Z" /><path id="矩形 150" fill-rule="evenodd" fill="url(#linear_0)" transform="translate(4.547473508864641e-13 11.835762023925781)  rotate(0 148.55287170410156 2.7186858654022217)" opacity="1" d="M0,5.44L297.11,5.44L297.11,0L0,0L0,5.44Z " /><path id="路径 632" fill-rule="evenodd" style="fill:#FFFFFF" transform="translate(0 0)  rotate(0 152.57916259765648 5.91790771484375)" opacity="1" d="M305.16 0L297.2 11.84L0 11.84L22.3 0L305.16 0Z" /><path id="路径 633" fill-rule="evenodd" fill="url(#linear_1)" transform="translate(297.10583496093795 0)  rotate(0 4.0262451171875 8.636566162109375)" opacity="1" d="M0 17.27L0.09 11.84L8.05 0L8.05 5.92L0 17.27Z" /></g><g opacity="1" transform="translate(309.80199336536634 139.5212868277075)  rotate(0 11.40291026660634 19.79675555229187)"><path id="路径 634" fill-rule="evenodd" style="fill:#FF5722" transform="translate(1.09033203125 4.303466796875)  rotate(0 10.312683105468977 16.458221435546875)" opacity="1" d="M0 0L20.63 0L18.17 32.92L2.46 32.92L0 0Z" /><path id="椭圆 40" fill-rule="evenodd" style="fill:#FF5722" transform="translate(3.545654535293579 34.84639358520508)  rotate(0 7.857285022735596 2.373558759689331)" opacity="1" d="M7.86,0C3.52,0 0,1.06 0,2.37C0,3.68 3.52,4.75 7.86,4.75C12.2,4.75 15.71,3.68 15.71,2.37C15.71,1.06 12.2,0 7.86,0Z " /><path id="路径 635" fill-rule="evenodd" style="fill:#D1E1F2" transform="translate(0 4.76031494140625)  rotate(0 11.40283203125 3.444580078125)" opacity="1" d="M11.4 0C13.83 0 16.09 0.23 17.94 0.62L22.81 0.66L22.81 3.44C22.81 5.35 17.7 6.89 11.4 6.89C5.11 6.89 0 5.35 0 3.44L0 0.5L5.3 0.54C7.07 0.2 9.16 0 11.4 0Z" /><path id="椭圆 41" fill-rule="evenodd" style="fill:#FFFFFF" transform="translate(0.0000935282077989541 1.9712707996368408)  rotate(0 11.402863502502441 3.4446067810058594)" opacity="1" d="M11.4,0C5.11,0 0,1.54 0,3.44C0,5.35 5.11,6.89 11.4,6.89C17.7,6.89 22.81,5.35 22.81,3.44C22.81,1.54 17.7,0 11.4,0Z " /><path id="路径 636" fill-rule="evenodd" style="fill:#FFFFFF" transform="translate(1.89892578125 15.1424560546875)  rotate(0 9.504150390625 2.2138671875)" opacity="1" d="M19.01 0L18.77 3.25C16.41 3.98 13.13 4.43 9.5 4.43C5.88 4.43 2.6 3.98 0.24 3.25L0 0C2.37 0.77 5.75 1.25 9.5 1.25C13.26 1.25 16.64 0.77 19.01 0Z" /><path id="路径 637" fill-rule="evenodd" style="fill:#FFFFFF" transform="translate(2.3365478515625 21.0068359375)  rotate(0 9.066650390625 2.146270751953125)" opacity="1" d="M18.13 0L17.89 3.25C15.57 3.9 12.47 4.29 9.07 4.29C5.66 4.29 2.56 3.9 0.24 3.25L0 0C2.34 0.69 5.54 1.11 9.07 1.11C12.59 1.11 15.79 0.69 18.13 0Z" /><path id="路径 638" fill-rule="evenodd" style="fill:#D1E1F2" transform="translate(2.490966796875 2.1798095703125)  rotate(0 8.9122314453125 2.69219970703125)" opacity="1" d="M4.14 0.42C5.52 0.15 7.16 0 8.91 0C10.81 0 12.57 0.18 14.02 0.49L17.82 0.51L17.82 2.69C17.82 4.18 13.83 5.38 8.91 5.38C3.99 5.38 0 4.18 0 2.69L0 0.39L4.14 0.42Z" /><path id="路径 639" fill-rule="evenodd" style="fill:#FFFFFF" transform="translate(2.490966796875 0)  rotate(0 8.9122314453125 2.692169189453125)" opacity="1" d="M0 2.69C0 1.21 3.99 0 8.91 0C13.83 0 17.82 1.21 17.82 2.69C17.82 4.18 13.83 5.38 8.91 5.38C3.99 5.38 0 4.18 0 2.69Z" /><path id="路径 640" fill-rule="evenodd" style="fill:#D1E1F2" transform="translate(10.3465576171875 3.89874267578125)  rotate(0 1.382568359375 0.6197967529296875)" opacity="1" d="M0.2 0C0.98 0.14 1.78 0.14 2.57 0C2.63 0.37 2.7 0.75 2.77 1.12C1.85 1.28 0.91 1.28 0 1.12C0.06 0.75 0.13 0.37 0.2 0Z" /></g><g opacity="1" transform="translate(89.63767359203484 76.41270528473882)  rotate(0 70.71662287280083 50.247615814208956)"><path id="路径 641" fill-rule="evenodd" style="fill:#FFFFFF" transform="translate(61.8135736185468 76.20156860351557)  rotate(0 17.911560058593523 11.285552978515625)" opacity="1" d="M0 0L28.79 0L35.82 22.57L1.41 22.57L0 0Z" /><path id="路径 642" fill-rule="evenodd" style="fill:#EDF3FA" transform="translate(61.8721673685468 76.26318359374994)  rotate(0 15.957763671875 7.173492431640625)" opacity="1" d="M0 0.88L0.28 0L28.75 0L31.92 10.15L0.84 14.35L0 0.88Z" /><path id="路径 643" fill-rule="evenodd" style="fill:#15588D" transform="translate(0 0)  rotate(0 70.11272716564406 41.896240234375)" opacity="1" d="M121.5 2.22L138.21 70.38L140.05 77.86C140.85 81.14 138.85 83.79 135.57 83.79L26.01 83.79C22.73 83.79 19.42 81.14 18.62 77.86L16.35 68.61L0.07 2.22C-0.23 1 0.52 0 1.75 0L118.73 0C119.96 0 121.2 1 121.5 2.22Z" /><path id="路径 644" fill-rule="evenodd" style="fill:#1C75BC" transform="translate(1.208057745885526 0)  rotate(0 69.13973640835695 36.30023193359369)" opacity="1" d="M0.07 2.22C-0.23 1 0.52 0 1.75 0L118.73 0C119.96 0 121.2 1 121.5 2.22L138.21 70.38C138.52 71.61 137.76 72.6 136.53 72.6L19.55 72.6C18.32 72.6 17.08 71.61 16.78 70.38L0.07 2.22Z" /><path id="路径 645" fill-rule="evenodd" style="fill:#FFFFFF" transform="translate(17.556005259170888 68.61056518554682)  rotate(0 61.93862024321538 7.590972900390625)" opacity="1" d="M119.22 15.18L9.66 15.18C6.38 15.18 3.07 12.53 2.27 9.25L0 0L121.43 0L123.7 9.25C124.5 12.53 122.5 15.18 119.22 15.18Z" /><path id="路径 646" fill-rule="evenodd" style="fill:#1C75BC" transform="translate(7.188573618546343 5.118225097656193)  rotate(0 62.67724609375 29.21685791015625)" opacity="1" d="M0 0L111.02 0L125.35 58.43L14.33 58.43L0 0Z" /><path id="矩形 151" fill-rule="evenodd" style="fill:#F6F9FC" transform="translate(56.733197947159624 97.27366137504572)  rotate(180 24.710861206054688 1.6107851266860962)" opacity="1" d="M0,3.22L49.42,3.22L49.42,0L0,0L0,3.22Z " /></g><g opacity="1" transform="translate(233.57004451282728 130.07502828278564)  rotate(0 35.33819580078125 52.26786804199219)"><path id="路径 661" fill-rule="evenodd" style="fill:#4D5068" transform="translate(0.00024414062545474735 0)  rotate(0 35.33807373046852 52.26786804199219)" opacity="1" d="M12.01 0L58.67 0C65.3 0 70.68 5.38 70.68 12.01L70.68 91.66C67.62 94.46 64.66 97.35 61.91 100.46C59.63 103.06 56.33 104.54 52.87 104.54L0 104.54L0 12.01C0 5.38 5.38 0 12.01 0Z" /><path id="路径 662" fill-rule="evenodd" style="fill:#5F6177" transform="translate(0.00024414062545474735 87.83062744140625)  rotate(0 35.33807373046852 5.489532470703125)" opacity="1" d="M63.41 10.98L0 10.98L0 0L70.68 0L70.68 3.82C68.17 6.13 65.72 8.49 63.41 10.98Z" /><path id="路径 663" fill-rule="evenodd" style="fill:#5F6177" transform="translate(0.10363769531295475 0)  rotate(0 35.23443603515602 5.4895172119140625)" opacity="1" d="M11.9 0L58.56 0C64.84 0 69.94 4.84 70.47 10.98L0 10.98C0.53 4.84 5.63 0 11.9 0Z" /><path id="矩形 152" fill-rule="evenodd" style="fill:#5F6177" transform="translate(0 21.95765495300293)  rotate(0 35.33809280395508 5.489472389221191)" opacity="1" d="M0,10.98L70.68,10.98L70.68,0L0,0L0,10.98Z " /><path id="矩形 153" fill-rule="evenodd" style="fill:#5F6177" transform="translate(0 43.9153938293457)  rotate(0 35.33809280395508 5.489452838897705)" opacity="1" d="M0,10.98L70.68,10.98L70.68,0L0,0L0,10.98Z " /><path id="矩形 154" fill-rule="evenodd" style="fill:#5F6177" transform="translate(0 65.87307739257812)  rotate(0 35.33809280395508 5.489395618438721)" opacity="1" d="M0,10.98L70.68,10.98L70.68,0L0,0L0,10.98Z " /></g><g opacity="1" transform="translate(50.37904262073744 96.88186140268738)  rotate(0 22.856849670410156 39.41504199717804)"><path id="路径 664" fill-rule="evenodd" style="fill:#BF411A" transform="translate(15.507569577059257 2.0420255586502094)  rotate(0 6.60433927197289 10.30692696552785)" opacity="1" d="M3.68 1.35C6.09 -0.46 9.96 -0.58 11.83 1.78C12.55 2.7 12.9 3.86 13.1 5.01C13.74 8.55 11.52 22.82 5.33 20.32C2.45 19.16 0.63 14.28 0.17 11.52C-0.46 7.8 0.66 3.61 3.68 1.35Z" /><path id="路径 665" fill-rule="evenodd" style="fill:#FF5722" transform="translate(1.7431061053048325 0.00011043384762388087)  rotate(0 8.379366161459075 13.332507029705283)" opacity="1" d="M0.32 6.83C0.91 5.1 2.29 3.77 3.7 2.62C5.4 1.24 7.38 -0.04 9.56 0C12.11 0.05 14.34 1.95 15.45 4.24C16.56 6.53 16.74 9.15 16.75 11.69C16.7505 11.7861 16.7511 11.884 16.7516 11.9836C16.7737 15.8661 16.8107 22.3698 14.11 25.48C11.14 28.92 6.99 24.07 4.66 21.1C2.82 18.75 1.68 15.93 0.79 13.09C0.16 11.06 -0.36 8.84 0.32 6.83Z" /><path id="路径 666" fill-rule="evenodd" style="fill:#FF5722" transform="translate(26.000389252654713 0)  rotate(0 8.985175058117647 13.932192095173605)" opacity="1" d="M15.1 4.32C16.32 6.42 17.49 8.62 17.85 11.02C18.39 14.54 17.09 18.19 14.86 20.97C13.26 22.98 7.28 28.81 4.54 27.73C3.54 27.34 2.8 26.47 2.21 25.57C-0.316734 21.7202 -0.0997654 17.6846 0.130525 13.4013C0.150874 13.0228 0.171327 12.6424 0.19 12.26C0.43 7.53 2.76 2.6 7.08 0.64C8.23 0.11 9.55 -0.18 10.78 0.12C12.78 0.62 14.07 2.53 15.1 4.32Z" /><g opacity="1" transform="translate(9.696907495183723 10.637238639617863)  rotate(0 5.309586615869421 26.893488827089158)"><path id="路径 667" fill-rule="evenodd" style="fill:#191C3C" transform="translate(0 0)  rotate(0 5.309586615869421 26.893488827089158)" opacity="1" d="M10.62 53.38C10.65 53.92 9.81 53.92 9.78 53.38C9.58 49.45 9.26 45.51 8.84 41.59C7.31 27.64 4.34 13.86 0.02 0.51C-0.14 0 0.66 -0.22 0.83 0.29C2.06 4.09 3.18 7.93 4.19 11.8C7.74 25.39 9.89 39.35 10.62 53.38Z" /></g><g opacity="1" transform="translate(20.221873730142534 11.462703937940319)  rotate(0 1.4079195779030442 26.32680342932383)"><path id="路径 668" fill-rule="evenodd" style="fill:#191C3C" transform="translate(0 0)  rotate(0 1.4079195779030442 26.32680342932383)" opacity="1" d="M2.81 52.13C2.9 52.66 2.1 52.88 2 52.35C1.35 48.68 1.34 44.97 1.46 41.26C1.68 34.48 1.81 27.71 1.57 20.93C1.34 14.07 0.81 7.22 0 0.4C-0.06 -0.14 0.78 -0.13 0.84 0.4C1.29 4.22 1.66 8.04 1.93 11.88C2.41 18.62 2.62 25.38 2.55 32.13C2.53067 33.9604 2.45266 35.8037 2.37446 37.6515C2.16939 42.497 1.963 47.3738 2.81 52.13Z" /></g><g opacity="1" transform="translate(23.810167276700213 10.409528964052981)  rotate(0 6.506432364387251 23.314013136950337)"><path id="路径 669" fill-rule="evenodd" style="fill:#191C3C" transform="translate(0 0)  rotate(0 6.506432364387251 23.314013136950337)" opacity="1" d="M12.25 0.22C12.47 -0.27 13.19 0.15 12.97 0.64Q10.855 5.515 9.07 10.51C4.95 22.05 2.18 34.06 0.84 46.23C0.78 46.76 -0.06 46.76 0 46.23C0.38 42.79 0.87 39.37 1.47 35.96C3.63 23.67 7.27 11.66 12.25 0.22Z" /></g><path id="路径 670" fill-rule="evenodd" style="fill:#FEC55E" transform="translate(4.546386718749545 44.79431739279357)  rotate(0 18.310607910156477 17.01788330078125)" opacity="1" d="M26.46 34.04L10.16 34.04C7.52 34.04 5.27 32.12 4.84 29.51L0 0L36.62 0L31.78 29.51C31.35 32.12 29.1 34.04 26.46 34.04Z" /><path id="路径 671" fill-rule="evenodd" style="fill:#BF9447" transform="translate(4.54638671875 44.79431739279357)  rotate(0 18.310607910156477 12.30084228515625)" opacity="1" d="M35.75 5.3L4.04 24.6L0 0L36.62 0L35.75 5.3Z" /><path id="矩形 155" fill-rule="evenodd" style="fill:#FEC55E" transform="translate(0 39.43896308371154)  rotate(0 22.856849670410156 4.215156555175781)" opacity="1" d="M0.31,8.43L45.41,8.43C45.58,8.43 45.71,8.29 45.71,8.12L45.71,0.31C45.71,0.14 45.58,0 45.41,0L0.31,0C0.23,0 0.15,0.03 0.09,0.09C0.03,0.15 0,0.23 0,0.31L0,8.12C0,8.2 0.03,8.28 0.09,8.34C0.15,8.4 0.23,8.43 0.31,8.43Z " /></g><g opacity="1" transform="translate(102.10898861892247 106.58575521149663)  rotate(0 32.75405387178614 16.961395263671847)"><path id="路径 672" fill-rule="evenodd" style="fill:#FFFFFF" transform="translate(0 0)  rotate(0 32.75405387178614 16.961395263671847)" opacity="1" d="M64.47 33.92L9.41 33.92C8.68 33.92 7.94 33.33 7.76 32.6L0.04 1.33C-0.14 0.59 0.31 0 1.04 0L56.1 0C56.83 0 57.57 0.59 57.75 1.33L65.47 32.6C65.65 33.33 65.2 33.92 64.47 33.92Z" /><g opacity="1" transform="translate(9.207942746046683 7.621614933013859)  rotate(0 9.622196886123561 9.339767456054659)"><path id="路径 673" fill-rule="evenodd" style="fill:#FF5722" transform="translate(0 0)  rotate(0 9.622196886123561 9.339767456054659)" opacity="1" d="M0.28 9.34C-0.99 4.18 2.16 0 7.32 0C12.48 0 17.69 4.18 18.96 9.34C20.23 14.5 17.09 18.68 11.93 18.68C6.77 18.68 1.56 14.5 0.28 9.34Z" /><path id="路径 674" fill-rule="evenodd" style="fill:#FFFFFF" transform="translate(5.268207546776239 5.260808140858671)  rotate(0 4.0600567082748285 4.0790745431786775)" opacity="1" d="M0.8 0.08L7.67 3.55C8.13 3.79 8.28 4.37 7.93 4.61L2.77 8.08C2.43 8.31 1.85 8.02 1.73 7.55L0.02 0.61C-0.1 0.14 0.34 -0.15 0.8 0.08Z" /></g><path id="路径 675" fill-rule="evenodd" style="fill:#7DCCED" transform="translate(29.735584397322327 9.463195800781193)  rotate(0 13.0830078125 1.139724731445341)" opacity="1" d="M0 0L25.6 0L26.17 2.28L0.56 2.28L0 0Z" /><path id="路径 676" fill-rule="evenodd" style="fill:#7DCCED" transform="translate(31.304554123885737 15.821624755859261)  rotate(0 13.0830078125 1.139724731445341)" opacity="1" d="M0 0L25.6 0L26.17 2.28L0.56 2.28L0 0Z" /><path id="路径 677" fill-rule="evenodd" style="fill:#7DCCED" transform="translate(32.87352385044824 22.180206298828068)  rotate(0 6.68212890625 1.1397705078125)" opacity="1" d="M0 0L12.8 0L13.36 2.28L0.56 2.28L0 0Z" /></g><g opacity="1" transform="translate(95.91999053574818 79.94212423005126)  rotate(0 25.019197294208084 11.82452392578125)"><path id="路径 678" fill-rule="evenodd" style="fill:#FFFFFF" transform="translate(0 0)  rotate(0 25.019197294208084 11.82452392578125)" opacity="1" d="M45.2 2.45L49.96 21.2C50.3 22.55 49.49 23.65 48.13 23.65L7.91 23.65C6.56 23.65 5.18 22.55 4.84 21.2L0.08 2.45C-0.27 1.1 0.55 0 1.91 0L42.13 0C43.48 0 44.86 1.1 45.2 2.45Z" /><path id="路径 679" fill-rule="evenodd" style="fill:#A9DDF3" transform="translate(2.2014074316689403 1.91412353515625)  rotate(0 1.4805297851564774 0.665496826171875)" opacity="1" d="M0 0L2.62 0L2.96 1.33L0.34 1.33L0 0Z" /><path id="路径 680" fill-rule="evenodd" style="fill:#A9DDF3" transform="translate(22.609610556669395 4.04693603515625)  rotate(0 10.247802734375 0.6655120849609659)" opacity="1" d="M0 0L20.16 0L20.5 1.33L0.34 1.33L0 0Z" /><path id="路径 681" fill-rule="evenodd" style="fill:#A9DDF3" transform="translate(23.56261348635644 7.80133056640625)  rotate(0 10.247802734375 0.6655426025390625)" opacity="1" d="M0 0L20.16 0L20.5 1.33L0.34 1.33L0 0Z" /><path id="路径 682" fill-rule="evenodd" style="fill:#A9DDF3" transform="translate(24.515616416043486 11.55572509765625)  rotate(0 10.247802734375 0.6655120849609375)" opacity="1" d="M0 0L20.16 0L20.5 1.33L0.34 1.33L0 0Z" /><path id="路径 683" fill-rule="evenodd" style="fill:#A9DDF3" transform="translate(25.468619345731895 15.310058593750057)  rotate(0 5.943969726562045 0.6655120849609091)" opacity="1" d="M0 0L11.55 0L11.89 1.33L0.34 1.33L0 0Z" /><path id="路径 684" fill-rule="evenodd" style="fill:#A9DDF3" transform="translate(3.1343908301064403 5.590240478515625)  rotate(0 1.48046875 0.66552734375)" opacity="1" d="M0 0L2.62 0L2.96 1.33L0.34 1.33L0 0Z" /><path id="路径 685" fill-rule="evenodd" style="fill:#A9DDF3" transform="translate(4.0676183691684855 9.266265869140625)  rotate(0 1.48046875 0.6654815673827841)" opacity="1" d="M0 0L2.62 0L2.96 1.33L0.34 1.33L0 0Z" /><path id="路径 686" fill-rule="evenodd" style="fill:#A9DDF3" transform="translate(5.000601767606895 12.942230224609375)  rotate(0 1.4805297851560226 0.6655120849609375)" opacity="1" d="M0 0L2.62 0L2.96 1.33L0.34 1.33L0 0Z" /><path id="路径 687" fill-rule="evenodd" style="fill:#A9DDF3" transform="translate(5.9338293066684855 16.61834716796875)  rotate(0 1.4805297851564774 0.6654968261719034)" opacity="1" d="M0 0L2.62 0L2.96 1.33L0.34 1.33L0 0Z" /><path id="路径 688" fill-rule="evenodd" style="fill:#A9DDF3" transform="translate(6.86681270510644 20.294403076171875)  rotate(0 1.48046875 0.6654815673828125)" opacity="1" d="M0 0L2.62 0L2.96 1.33L0.34 1.33L0 0Z" /><g opacity="1" transform="translate(9.835689589326194 4.4112935066223145)  rotate(0 5.724417873859238 5.52035548415023)"><path id="路径 689" fill-rule="evenodd" style="fill:#FEC55E" transform="translate(0 0)  rotate(0 5.724417873859238 5.52035548415023)" opacity="1" d="M9.93 6.71Z M10.22 9.95L11.02 8.88C11.15 8.71 11.08 8.44 10.86 8.27L10.03 7.61C9.9 7.51 9.83 7.35 9.86 7.22C9.9 6.99 9.93 6.72 9.93 6.71L11.11 6.7C11.35 6.7 11.5 6.51 11.43 6.27L11.05 4.76C10.99 4.52 10.75 4.33 10.51 4.33L9.58 4.33C9.43 4.33 9.27 4.23 9.18 4.09C9.12 4 9.07 3.91 9.01 3.83C8.91 3.69 8.89 3.53 8.97 3.42L9.46 2.76C9.59 2.59 9.52 2.32 9.3 2.15L7.97 1.08C7.75 0.91 7.48 0.91 7.35 1.08L6.86 1.74C6.78 1.85 6.63 1.88 6.48 1.82C6.38 1.78 6.27 1.74 6.17 1.7C6.02 1.65 5.9 1.52 5.86 1.37L5.62 0.43C5.56 0.19 5.32 0 5.08 0L3.57 0C3.33 0 3.18 0.19 3.24 0.43L3.48 1.36C3.52 1.51 3.45 1.64 3.32 1.7C3.24 1.73 3.16 1.77 3.08 1.81C2.96 1.88 2.79 1.85 2.65 1.74L1.83 1.09C1.62 0.92 1.34 0.92 1.22 1.09L0.43 2.16C0.3 2.33 0.37 2.61 0.58 2.78L1.41 3.44C1.54 3.54 1.61 3.69 1.59 3.83C1.57 3.92 1.56 4.03 1.55 4.11C1.53 4.25 1.42 4.34 1.27 4.34L0.34 4.34C0.1 4.34 -0.05 4.54 0.01 4.78L0.4 6.29C0.46 6.53 0.71 6.72 0.95 6.72L1.87 6.72C2.02 6.72 2.18 6.82 2.27 6.96C2.33 7.05 2.38 7.13 2.44 7.22C2.54 7.36 2.56 7.52 2.48 7.63L1.99 8.28C1.87 8.45 1.94 8.73 2.15 8.9L3.49 9.96C3.7 10.13 3.98 10.13 4.1 9.96L4.6 9.3C4.67 9.2 4.82 9.17 4.97 9.22C5.08 9.26 5.19 9.3 5.28 9.34C5.44 9.39 5.56 9.52 5.6 9.67L5.84 10.61C5.9 10.85 6.14 11.04 6.38 11.04L7.89 11.04C8.13 11.04 8.27 10.84 8.21 10.6L7.97 9.68C7.94 9.52 8 9.39 8.13 9.34C8.21 9.31 8.29 9.27 8.36 9.23C8.48 9.17 8.65 9.19 8.79 9.3L9.61 9.95C9.82 10.12 10.1 10.12 10.22 9.95Z M3.51749 5.13048Z M5.45749 7.51048C6.82749 7.99048 8.01749 7.24048 7.92749 5.90048C7.85749 4.91048 7.02749 3.89048 5.98749 3.52048C4.62749 3.05048 3.43749 3.80048 3.51749 5.13048C3.58749 6.13048 4.41749 7.15048 5.45749 7.51048Z " /></g></g><g opacity="1" transform="translate(144.13930141769197 79.13111959137939)  rotate(0 35.204594022949095 12.230010986328097)"><path id="路径 690" fill-rule="evenodd" style="fill:#FFFFFF" transform="translate(0 0)  rotate(0 35.204594022949095 12.230010986328097)" opacity="1" d="M5.48 23.17L0.04 1.29C-0.14 0.58 0.3 0 1.01 0L63.32 0C64.04 0 64.75 0.58 64.93 1.29L70.37 23.17C70.55 23.88 70.11 24.46 69.4 24.46L7.09 24.46C6.37 24.46 5.65 23.88 5.48 23.17Z" /><path id="路径 691" fill-rule="evenodd" style="fill:#D2E3F2" transform="translate(3.870852348065 3.397247314453068)  rotate(0 2.716064453125 8.832748413085966)" opacity="1" d="M0 0L1.04 0L5.43 17.67L4.39 17.67L0 0Z" /><path id="路径 692" fill-rule="evenodd" style="fill:#D2E3F2" transform="translate(6.54541289494 3.397247314453068)  rotate(0 2.716064453125 8.832748413085966)" opacity="1" d="M0 0L1.04 0L5.43 17.67L4.39 17.67L0 0Z" /><path id="路径 693" fill-rule="evenodd" style="fill:#D2E3F2" transform="translate(9.220095512127955 3.397247314453068)  rotate(0 2.7160034179685226 8.832748413085966)" opacity="1" d="M0 0L1.04 0L5.43 17.67L4.39 17.67L0 0Z" /><path id="路径 694" fill-rule="evenodd" style="fill:#D2E3F2" transform="translate(11.894778129315 3.397247314453068)  rotate(0 2.7159423828125 8.832748413085966)" opacity="1" d="M0 0L1.04 0L5.43 17.67L4.39 17.67L0 0Z" /><path id="路径 695" fill-rule="evenodd" style="fill:#D2E3F2" transform="translate(14.569338676189545 3.397247314453068)  rotate(0 2.7160034179689774 8.832748413085966)" opacity="1" d="M0 0L1.04 0L5.43 17.67L4.39 17.67L0 0Z" /><path id="路径 696" fill-rule="evenodd" style="fill:#D2E3F2" transform="translate(17.2440212933775 3.397247314453068)  rotate(0 2.716064453125 8.832748413085966)" opacity="1" d="M0 0L1.04 0L5.43 17.67L4.39 17.67L0 0Z" /><path id="路径 697" fill-rule="evenodd" style="fill:#1C75BC" transform="translate(6.328127738689545 13.28631591796875)  rotate(0 1.4873046875 3.888214111328125)" opacity="1" d="M0 0L1.04 0L2.97 7.78L1.93 7.78L0 0Z" /><path id="路径 698" fill-rule="evenodd" style="fill:#1C75BC" transform="translate(8.20019805119 10.05615234375)  rotate(0 1.888671875 5.5032958984375)" opacity="1" d="M0 0L1.04 0L3.78 11.01L2.74 11.01L0 0Z" /><path id="路径 699" fill-rule="evenodd" style="fill:#1C75BC" transform="translate(10.466677543377045 8.41375732421875)  rotate(0 2.0927124023439774 6.324493408203153)" opacity="1" d="M0 0L1.04 0L4.19 12.65L3.14 12.65L0 0Z" /><path id="路径 700" fill-rule="evenodd" style="fill:#1C75BC" transform="translate(13.5494412152525 10.05615234375)  rotate(0 1.8886108398439774 5.5032958984375)" opacity="1" d="M0 0L1.04 0L3.78 11.01L2.73 11.01L0 0Z" /><path id="路径 701" fill-rule="evenodd" style="fill:#1C75BC" transform="translate(15.421511527752045 6.82611083984375)  rotate(0 2.2899169921879547 7.1183013916015625)" opacity="1" d="M0 0L1.04 0L4.58 14.24L3.54 14.24L0 0Z" /><path id="路径 702" fill-rule="evenodd" style="fill:#1C75BC" transform="translate(17.66064726994 5.074127197265568)  rotate(0 2.5076904296875 7.994308471679716)" opacity="1" d="M0 0L1.04 0L5.02 15.99L3.97 15.99L0 0Z" /><path id="路径 703" fill-rule="evenodd" style="fill:#FEC55E" transform="translate(25.054685684175183 3.504882812499943)  rotate(0 2.977753369765537 2.889083862304716)" opacity="1" d="M0.09 2.89C-0.31 1.29 0.66 0 2.26 0C3.86 0 5.47 1.29 5.87 2.89C6.26 4.48 5.29 5.78 3.7 5.78C2.1 5.78 0.48 4.48 0.09 2.89Z" /><path id="路径 704" fill-rule="evenodd" style="fill:#77ACD7" transform="translate(31.8734158246275 3.961700439453068)  rotate(0 15.610595703125 0.3890838623047159)" opacity="1" d="M0 0L31.03 0L31.22 0.78L0.19 0.78L0 0Z" /><path id="路径 705" fill-rule="evenodd" style="fill:#77ACD7" transform="translate(32.436404105877045 6.227386474609375)  rotate(0 15.610595703125 0.389068603515625)" opacity="1" d="M0 0L31.03 0L31.22 0.78L0.19 0.78L0 0Z" /><path id="路径 706" fill-rule="evenodd" style="fill:#77ACD7" transform="translate(32.99951445744 8.4931640625)  rotate(0 4.9908447265625 0.3890686035156534)" opacity="1" d="M0 0L9.79 0L9.98 0.78L0.19 0.78L0 0Z" /><path id="路径 707" fill-rule="evenodd" style="fill:#27AAE1" transform="translate(27.830210645632633 14.673553466796875)  rotate(0 2.9776901278465857 2.8890838623046875)" opacity="1" d="M0.09 2.89C-0.31 1.29 0.66 0 2.26 0C3.86 0 5.47 1.29 5.87 2.89C6.26 4.48 5.29 5.78 3.7 5.78C2.1 5.78 0.49 4.48 0.09 2.89Z" /><path id="路径 708" fill-rule="evenodd" style="fill:#77ACD7" transform="translate(34.648806449627955 15.130401611328125)  rotate(0 15.610534667968523 0.3890838623047159)" opacity="1" d="M0 0L31.03 0L31.22 0.78L0.19 0.78L0 0Z" /><path id="路径 709" fill-rule="evenodd" style="fill:#77ACD7" transform="translate(35.2117947308775 17.39605712890625)  rotate(0 15.610534667968523 0.3890838623046875)" opacity="1" d="M0 0L31.03 0L31.22 0.78L0.19 0.78L0 0Z" /><path id="路径 710" fill-rule="evenodd" style="fill:#77ACD7" transform="translate(35.774783012127045 19.6617431640625)  rotate(0 4.990905761718977 0.3891143798827841)" opacity="1" d="M0 0L9.79 0L9.98 0.78L0.19 0.78L0 0Z" /></g><g opacity="1" transform="translate(163.69944662895318 108.49968038239501)  rotate(0 9.913713933863392 8.68890380859375)"><path id="路径 711" fill-rule="evenodd" style="fill:#FF5722" transform="translate(0 0)  rotate(0 9.913713933863392 8.68890380859375)" opacity="1" d="M16.56 17.38L7.5 17.38C5.2 17.38 2.89 15.51 2.33 13.22L0.12 4.16C-0.44 1.86 0.97 0 3.27 0L12.32 0C14.62 0 16.94 1.86 17.5 4.16L19.7 13.22C20.26 15.51 18.85 17.38 16.56 17.38Z" /><g opacity="1" transform="translate(3.9353464094931496 5.318458557128849)  rotate(0 6.106689453125227 3.3706359863281534)"><path id="路径 712" fill-rule="evenodd" style="fill:#FFFFFF" transform="translate(0 1.7909545898438068)  rotate(0 2.2096557617189774 2.10205078125)" opacity="1" d="M0.28 2.67L0 1.53L3.4 0L3.71 1.3L1.55 2.1L1.56 2.12L4.1 2.9L4.42 4.2L0.28 2.67Z" /><path id="路径 713" fill-rule="evenodd" style="fill:#FFFFFF" transform="translate(4.9637451171875 0)  rotate(0 0.9657592773439774 3.3706359863281534)" opacity="1" d="M0.48 0L1.93 0L1.45 6.74L0 6.74L0.48 0Z" /><path id="路径 714" fill-rule="evenodd" style="fill:#FFFFFF" transform="translate(7.815429687500455 1.7989807128906818)  rotate(0 2.198974609375 2.10223388671875)" opacity="1" d="M2.84 2.08L0.32 1.31L0 0L4.12 1.54L4.4 2.67L1.02 4.2L0.71 2.9L2.85 2.11L2.84 2.08Z" /></g></g><g opacity="1" transform="translate(184.48495229736295 108.49968038239501)  rotate(0 9.913685207210051 8.68890380859375)"><path id="路径 715" fill-rule="evenodd" style="fill:#FEC55E" transform="translate(0 0)  rotate(0 9.913685207210051 8.68890380859375)" opacity="1" d="M2.33 13.22L0.12 4.16C-0.44 1.86 0.97 0 3.27 0L12.32 0C14.62 0 16.94 1.86 17.5 4.16L19.7 13.22C20.26 15.51 18.85 17.38 16.56 17.38L7.5 17.38C5.2 17.38 2.89 15.51 2.33 13.22Z" /><g opacity="1" transform="translate(6.0383931683757055 5.531375408172664)  rotate(0 3.8753051757810226 3.2743225097655966)"><path id="路径 716" fill-rule="evenodd" style="fill:#FFFFFF" transform="translate(0 0)  rotate(0 3.8753051757810226 3.2743225097655966)" opacity="1" d="M6.15 0L7.75 1.6L2.81 6.55L0 3.74L1.6 2.14L2.81 3.34L6.15 0Z" /></g></g></g></svg>