<svg xmlns="http://www.w3.org/2000/svg" xmlns:xlink="http://www.w3.org/1999/xlink" width="351.7531623570143" height="234.61077962555908" viewBox="0 0 351.7531623570143 234.61077962555908" fill="none"><defs><linearGradient id="linear_0" x1="3.341910243034363%" y1="49.99946355819702%" x2="94.80807185173035%" y2="49.99946355819702%" gradientUnits="objectBoundingBox"><stop offset="0.003484319895505905" stop-color="#FC7318" stop-opacity="1" /><stop offset="1" stop-color="#FEC55E" stop-opacity="1" /></linearGradient></defs><g opacity="1" transform="translate(0 0)  rotate(0 175.87658117850714 117.30538981277954)"><g opacity="1" transform="translate(0 0)  rotate(0 175.8765695971287 117.30538981277954)"><path id="路径 519" fill-rule="evenodd" style="fill:#D4EEF9" transform="translate(0 0)  rotate(0 175.8765695971287 117.30538981277954)" opacity="1" d="M0.24 84.79C-1.73 68.63 8.43 50.19 24.59 48.17C26.5464 47.9278 28.5223 47.9221 30.4965 47.9164C32.7605 47.9098 35.0224 47.9033 37.25 47.54C51.53 45.23 59.23 30.11 69.26 19.68C81.08 7.4 100.29 0.81 115.72 8.06C124.38 12.13 130.97 19.98 139.95 23.31C150.65 27.26 162.7 24.03 172.9 18.94C183.11 13.85 192.42 6.94 203.09 2.93C213.77 -1.07 226.74 -1.63 235.7 5.42C239.11 8.09 241.7 11.68 245.06 14.41C254.92 22.39 269.2 21.45 281.51 18.37C284.155 17.7078 286.801 16.9633 289.453 16.2176C299.132 13.4951 308.867 10.7568 318.75 11.95C331.22 13.46 342.68 21.66 348.13 32.98C353.58 44.3 352.83 58.38 346.23 69.06C341.3 77.03 333.62 82.85 327.37 89.83C321.12 96.81 316.07 106.13 318.25 115.25C319.59 120.88 323.48 125.49 326.98 130.11C336.1 142.13 343.55 156.71 341.78 171.7C340.17 185.26 331.27 196.84 321.43 206.32C312.87 214.57 303.29 221.68 295.49 230.54C293.2 233.14 289.9 234.61 286.44 234.61L80.95 234.61C64.19 226.83 52.43 204.47 51.63 186C51.491 182.746 51.6625 179.471 51.8339 176.201C52.1185 170.768 52.4024 165.348 51.26 160.06C48.17 145.73 35.62 135.81 24.94 125.77C13.07 114.62 2.22 100.95 0.24 84.79Z" /></g><g opacity="1" transform="translate(74.67281020202208 34.72440419831298)  rotate(0 43.56241226196289 43.562416076660156)"><path id="矩形 128" fill-rule="evenodd" style="fill:#7DCCED" transform="translate(0 0)  rotate(0 43.56241226196289 43.562416076660156)" opacity="1" d="M0,87.12L87.12,87.12L87.12,0L0,0L0,87.12Z " /><path id="矩形 129" fill-rule="evenodd" style="fill:#D4EEF9" transform="translate(2.204354763031006 2.204343318939209)  rotate(0 41.35806655883789 41.35806655883789)" opacity="1" d="M0,82.72L82.72,82.72L82.72,0L0,0L0,82.72Z " /><path id="路径 520" fill-rule="evenodd" style="fill:#27AAE1" transform="translate(2.204376220703125 2.204345703125)  rotate(0 41.3580627441406 41.358062744140625)" opacity="0.2" d="M0 0L82.72 0L82.72 1.34L1.34 1.34L1.34 82.72L0 82.72L0 0Z" /><g opacity="1" transform="translate(37.517696380615234 55.48134994506836)  rotate(0 0.4865454435348511 14.719545364379883)"><path id="矩形 130" fill-rule="evenodd" style="fill:#A9DDF3" transform="translate(0 0)  rotate(0 0.4865454435348511 14.719545364379883)" opacity="1" d="M0,29.44L0.97,29.44L0.97,0L0,0L0,29.44Z " /></g><g opacity="1" transform="translate(30.94939613342285 48.42649078369135)  rotate(0 7.0548095703125 7.054840087890653)"><path id="路径 521" fill-rule="evenodd" style="fill:#A9DDF3" transform="translate(0 0)  rotate(0 7.0548095703125 7.054840087890653)" opacity="1" d="M7.06 14.11Z M14.11 7.06C14.11 3.16 10.94 0 7.06 0C3.16 0 0 3.16 0 7.06C0 10.94 3.16 14.11 7.06 14.11C10.94 14.11 14.11 10.94 14.11 7.06Z M7.05305 0.973053Z M7.05305 13.1331C10.4131 13.1331 13.1331 10.4131 13.1331 7.05305C13.1331 3.70305 10.4131 0.973053 7.05305 0.973053C3.70305 0.973053 0.973053 3.70305 0.973053 7.05305C0.973053 10.4131 3.70305 13.1331 7.05305 13.1331Z " /></g><g opacity="1" transform="translate(50.65446853637695 35.53289031982422)  rotate(0 0.4865454435348511 24.693775177001953)"><path id="矩形 131" fill-rule="evenodd" style="fill:#A9DDF3" transform="translate(0 0)  rotate(0 0.4865454435348511 24.693775177001953)" opacity="1" d="M0,49.39L0.97,49.39L0.97,0L0,0L0,49.39Z " /></g><g opacity="1" transform="translate(44.085983276367244 28.477766036987248)  rotate(0 7.055007934570284 7.055023193359403)"><path id="路径 522" fill-rule="evenodd" style="fill:#A9DDF3" transform="translate(0 0)  rotate(0 7.055007934570284 7.055023193359403)" opacity="1" d="M7.06 14.11Z M14.11 7.06C14.11 3.17 10.95 0 7.06 0C3.17 0 0 3.17 0 7.06C0 10.95 3.17 14.11 7.06 14.11C10.95 14.11 14.11 10.95 14.11 7.06Z M7.05305 0.97345Z M7.05305 13.1334C10.4131 13.1334 13.1331 10.4134 13.1331 7.05345C13.1331 3.70345 10.4131 0.97345 7.05305 0.97345C3.70305 0.97345 0.973053 3.70345 0.973053 7.05345C0.973053 10.4134 3.70305 13.1334 7.05305 13.1334Z " /></g><g opacity="1" transform="translate(20.731767654418945 62.93815231323242)  rotate(0 0.486564576625824 10.991144180297852)"><path id="矩形 132" fill-rule="evenodd" style="fill:#A9DDF3" transform="translate(0 0)  rotate(0 0.486564576625824 10.991144180297852)" opacity="1" d="M0,21.98L0.97,21.98L0.97,0L0,0L0,21.98Z " /></g><g opacity="1" transform="translate(14.163467407226562 55.883365631103516)  rotate(0 7.0548095703125 7.0548248291015625)"><path id="路径 523" fill-rule="evenodd" style="fill:#A9DDF3" transform="translate(0 0)  rotate(0 7.0548095703125 7.0548248291015625)" opacity="1" d="M7.06 14.11Z M14.11 7.05C14.11 3.16 10.94 0 7.06 0C3.16 0 0 3.16 0 7.05C0 10.94 3.16 14.11 7.06 14.11C10.94 14.11 14.11 10.94 14.11 7.05Z M7.05308 0.973083Z M7.05308 13.1331C10.4131 13.1331 13.1331 10.4131 13.1331 7.05308C13.1331 3.70308 10.4131 0.973083 7.05308 0.973083C3.70308 0.973083 0.973083 3.70308 0.973083 7.05308C0.973083 10.4131 3.70308 13.1331 7.05308 13.1331Z " /></g><g opacity="1" transform="translate(65.47897338867188 52.51967239379883)  rotate(0 0.4865454435348511 16.20038604736328)"><path id="矩形 133" fill-rule="evenodd" style="fill:#A9DDF3" transform="translate(0 0)  rotate(0 0.4865454435348511 16.20038604736328)" opacity="1" d="M0,32.4L0.97,32.4L0.97,0L0,0L0,32.4Z " /></g><g opacity="1" transform="translate(58.91047668457031 45.464813232421875)  rotate(0 7.055007934570284 7.0548095703125)"><path id="路径 524" fill-rule="evenodd" style="fill:#A9DDF3" transform="translate(0 0)  rotate(0 7.055007934570284 7.0548095703125)" opacity="1" d="M7.05 14.11Z M14.11 7.05C14.11 3.16 10.94 0 7.05 0C3.17 0 0 3.16 0 7.05C0 10.94 3.17 14.11 7.05 14.11C10.94 14.11 14.11 10.94 14.11 7.05Z M7.05305 0.973022Z M7.05305 13.133C10.4131 13.133 13.1331 10.413 13.1331 7.05302C13.1331 3.70302 10.4131 0.973022 7.05305 0.973022C3.70305 0.973022 0.973053 3.70302 0.973053 7.05302C0.973053 10.413 3.70305 13.133 7.05305 13.133Z " /></g><g opacity="1" transform="translate(32.408939361572266 20.691621780395508)  rotate(0 0.4865454435348511 15.418266296386719)"><path id="矩形 134" fill-rule="evenodd" style="fill:#A9DDF3" transform="translate(0 0)  rotate(0 0.4865454435348511 15.418266296386719)" opacity="1" d="M0,30.84L0.97,30.84L0.97,0L0,0L0,30.84Z " /></g><g opacity="1" transform="translate(32.408939361572266 59.715126037597656)  rotate(0 0.4865454435348511 12.602657318115234)"><path id="矩形 135" fill-rule="evenodd" style="fill:#A9DDF3" transform="translate(0 0)  rotate(0 0.4865454435348511 12.602657318115234)" opacity="1" d="M0,25.21L0.97,25.21L0.97,0L0,0L0,25.21Z " /></g><g opacity="1" transform="translate(25.84048843383789 13.636799812316838)  rotate(0 7.055007934570284 7.054824829101591)"><path id="路径 525" fill-rule="evenodd" style="fill:#A9DDF3" transform="translate(0 0)  rotate(0 7.055007934570284 7.054824829101591)" opacity="1" d="M7.05 14.11Z M14.11 7.05C14.11 3.16 10.95 0 7.05 0C3.16 0 0 3.16 0 7.05C0 10.94 3.16 14.11 7.05 14.11C10.95 14.11 14.11 10.94 14.11 7.05Z M7.05305 0.973053Z M7.05305 13.1331C10.4131 13.1331 13.1331 10.4131 13.1331 7.05305C13.1331 3.70305 10.4131 0.973053 7.05305 0.973053C3.70305 0.973053 0.973053 3.70305 0.973053 7.05305C0.973053 10.4131 3.70305 13.1331 7.05305 13.1331Z " /></g><path id="椭圆 34" fill-rule="evenodd" style="fill:#27AAE1" transform="translate(28.539694954782206 12.50232404942712)  rotate(-78.74861133683333 6.568403720855713 6.568403720855713)" opacity="0.2" d="M6.57,0C2.94,0 0,2.94 0,6.57C0,10.2 2.94,13.14 6.57,13.14C10.2,13.14 13.14,10.2 13.14,6.57C13.14,2.94 10.2,0 6.57,0Z " /><path id="椭圆 35" fill-rule="evenodd" style="fill:#27AAE1" transform="translate(42.18995308957868 27.922768376898844)  rotate(-80.82711944995836 6.568378448486328 6.56837797164917)" opacity="0.2" d="M6.57,0C2.94,0 0,2.94 0,6.57C0,10.2 2.94,13.14 6.57,13.14C10.2,13.14 13.14,10.2 13.14,6.57C13.14,2.94 10.2,0 6.57,0Z " /><path id="椭圆 36" fill-rule="evenodd" style="fill:#27AAE1" transform="translate(61.10006784033662 44.95976192252209)  rotate(-76.81602482862183 6.568381309509277 6.568381309509277)" opacity="0.2" d="M6.57,0C2.94,0 0,2.94 0,6.57C0,10.2 2.94,13.14 6.57,13.14C10.2,13.14 13.14,10.2 13.14,6.57C13.14,2.94 10.2,0 6.57,0Z " /><path id="椭圆 37" fill-rule="evenodd" style="fill:#27AAE1" transform="translate(32.895498366759654 48.91296761556026)  rotate(-80.8318900447644 6.568382263183594 6.5683817863464355)" opacity="0.2" d="M6.57,0C2.94,0 0,2.94 0,6.57C0,10.2 2.94,13.14 6.57,13.14C10.2,13.14 13.14,10.2 13.14,6.57C13.14,2.94 10.2,0 6.57,0Z " /><path id="椭圆 38" fill-rule="evenodd" style="fill:#27AAE1" transform="translate(13.190290737175783 55.481337273373114)  rotate(-76.61754786444432 6.5684027671813965 6.568402290344238)" opacity="0.2" d="M6.57,0C2.94,0 0,2.94 0,6.57C0,10.2 2.94,13.14 6.57,13.14C10.2,13.14 13.14,10.2 13.14,6.57C13.14,2.94 10.2,0 6.57,0Z " /></g><path id="路径 526" fill-rule="evenodd" style="fill:#FFFFFF" transform="translate(181.58386672057676 219.31353841462158)  rotate(0 62.6688232421875 7.648590087890625)" opacity="1" d="M113.9 11.23C111.61 13.82 108.31 15.3 104.86 15.3L0 15.3L0 0L125.34 0C121.34 3.56 117.44 7.21 113.9 11.23Z" /><path id="路径 527" fill-rule="evenodd" style="fill:#E3F2F9" transform="translate(181.58386672057676 219.31353841462158)  rotate(0 62.6688232421875 3.02777099609375)" opacity="1" d="M118.82 6.06L0 6.06L0 0L125.34 0C123.12 1.97 120.93 3.98 118.82 6.06Z" /><path id="路径 528" fill-rule="evenodd" style="fill:#FFFFFF" transform="translate(197.5990339569049 0)  rotate(0 77.07706420005468 109.6556247981311)" opacity="1" d="M0 5.28C1.8 4.43 3.62 3.64 5.49 2.93C16.17 -1.07 29.14 -1.63 38.1 5.42C41.51 8.09 44.1 11.68 47.46 14.41C57.32 22.39 71.61 21.45 83.91 18.37C86.5546 17.7078 89.2014 16.9633 91.8525 16.2176C101.532 13.4951 111.267 10.7568 121.15 11.95C133.62 13.46 145.08 21.66 150.53 32.98C155.98 44.3 155.24 58.38 148.63 69.06C143.7 77.03 136.02 82.85 129.77 89.83C123.52 96.81 118.47 106.13 120.65 115.25C121.99 120.88 125.88 125.49 129.38 130.11C138.5 142.13 145.95 156.71 144.18 171.7C142.57 185.26 133.67 196.84 123.83 206.32C119.15 210.84 114.16 215.01 109.33 219.31L0 219.31L0 5.28Z" /><g opacity="1" transform="translate(205.23743117370176 0.0004648291658213566)  rotate(0 73.25784242890086 104.98060115608956)"><path id="路径 529" fill-rule="evenodd" style="fill:#A9DDF3" transform="translate(131.81036376953125 19.50474326676894)  rotate(0 7.352660544135233 30.277832031250014)" opacity="1" d="M0 0C4.67 3.57 8.53 8.18 11.08 13.47C16.53 24.8 15.79 38.87 9.18 49.56C6.65 53.64 3.41 57.16 0 60.56L0 0Z" /><path id="路径 530" fill-rule="evenodd" style="fill:#A9DDF3" transform="translate(49.190185546875 92.7162148243861)  rotate(0 37.65771484375 27.597351074218807)" opacity="1" d="M75.32 41.2L75.32 55.19L0 55.19L0 0L70.54 0C65.48 6.56 61.93 14.62 63.82 22.53C65.16 28.16 69.05 32.78 72.55 37.39C73.49 38.63 74.42 39.91 75.32 41.2Z" /><path id="路径 531" fill-rule="evenodd" style="fill:#A9DDF3" transform="translate(0.00006103515625 0)  rotate(0 20.772369384765625 43.08536418709541)" opacity="1" d="M41.54 15.68L41.54 86.17L0 86.17L0 2.19C10.23 -1.11 22.1 -1.17 30.47 5.42C33.87 8.09 36.46 11.68 39.82 14.41C40.38 14.86 40.96 15.28 41.54 15.68Z" /><path id="路径 532" fill-rule="evenodd" style="fill:#A9DDF3" transform="translate(49.190185546875 154.76635520524553)  rotate(0 37.65771484375 27.59735107421875)" opacity="1" d="M63.09 55.19L0 55.19L0 0L75.32 0L75.32 42.6C72.74 45.77 69.91 48.75 67 51.55C65.72 52.79 64.41 54 63.09 55.19Z" /><path id="路径 533" fill-rule="evenodd" style="fill:#A9DDF3" transform="translate(49.190185546875 11.662534749600042)  rotate(0 37.65771484375 37.25410444168993)" opacity="1" d="M64.32 0.29C68.13 0.75 71.84 1.83 75.32 3.44L75.32 74.51L0 74.51L0 7.55C8.48 10.02 18.28 8.91 27.08 6.71C29.7042 6.05076 32.3306 5.3114 34.9612 4.57089C44.6606 1.84047 54.416 -0.905712 64.32 0.29Z" /><path id="路径 534" fill-rule="evenodd" style="fill:#A9DDF3" transform="translate(131.81036376953125 154.76635520524553)  rotate(0 2.4960629688881113 15.84332275390625)" opacity="1" d="M4.73 16.93C4.11 22.15 2.41 27.07 0 31.69L0 0L3.13 0C4.73 5.5 5.41 11.19 4.73 16.93Z" /><path id="矩形 136" fill-rule="evenodd" style="fill:#A9DDF3" transform="translate(0 154.76640098161272)  rotate(0 20.772335052490234 27.597400665283203)" opacity="1" d="M0,55.19L41.54,55.19L41.54,0L0,0L0,55.19Z " /><path id="路径 535" fill-rule="evenodd" style="fill:#A9DDF3" transform="translate(131.81036376953125 146.50152366227678)  rotate(0 0.315673828125 0.704681396484375)" opacity="1" d="M0 0Q0.33 0.705 0.63 1.41L0 1.41L0 0Z" /><path id="矩形 137" fill-rule="evenodd" style="fill:#A9DDF3" transform="translate(0 92.71610801286272)  rotate(0 20.772335052490234 27.597383499145508)" opacity="1" d="M0,55.19L41.54,55.19L41.54,0L0,0L0,55.19Z " /></g><g opacity="1" transform="translate(175.87659132995176 1.0792755905630997)  rotate(0 87.934814453125 50.74774169921872)"><path id="路径 536" fill-rule="evenodd" style="fill:#7DCCED" transform="translate(21.42095947265625 0)  rotate(0 19.206298828125 2.171936035156193)" opacity="1" d="M11.98 0L29.65 0C32.81 0.86 35.78 2.27 38.41 4.34L0 4.34C1.89 3.44 3.82 2.6 5.79 1.86C7.79 1.11 9.86 0.48 11.98 0Z" /><path id="路径 537" fill-rule="evenodd" style="fill:#7DCCED" transform="translate(0 48.57562255859369)  rotate(0 87.934814453125 2.17193603515625)" opacity="1" d="M175.87 0C175.85 1.45 175.76 2.9 175.58 4.34L0 4.34L0 0L175.87 0Z" /><path id="路径 538" fill-rule="evenodd" style="fill:#7DCCED" transform="translate(123.77423095703125 10.583987320328674)  rotate(0 13.04388427734375 0.9278931196207765)" opacity="1" d="M26.09 1.86L0 1.86C6.32 0.4 12.68 -0.49 19.1 0.29C21.48 0.57 23.82 1.11 26.09 1.86Z" /><path id="路径 539" fill-rule="evenodd" style="fill:#7DCCED" transform="translate(0 64.7677612304687)  rotate(0 86.05654907226562 2.17193603515625)" opacity="1" d="M170.35 3.22C170.11 3.6 169.87 3.97 169.62 4.34L0 4.34L0 0L172.11 0C171.58 1.1 170.99 2.17 170.35 3.22Z" /><path id="路径 540" fill-rule="evenodd" style="fill:#7DCCED" transform="translate(0 16.191757202148324)  rotate(0 81.8509521484375 2.1721267700195597)" opacity="1" d="M163.7 4.34L0 4.34L0 0.12C0.07 0.08 0.15 0.04 0.22 0L73.61 0C83.04 4.81 95.07 3.75 105.63 1.1C107.01 0.75 108.4 0.38 109.79 0L157.91 0C159.97 1.27 161.91 2.72 163.7 4.34Z" /><path id="路径 541" fill-rule="evenodd" style="fill:#7DCCED" transform="translate(0 97.15124511718744)  rotate(0 72.72592163085938 2.172119140625)" opacity="1" d="M145.45 0C144.68 1.41 144 2.86 143.44 4.34L0 4.34L0 0L145.45 0Z" /><path id="路径 542" fill-rule="evenodd" style="fill:#7DCCED" transform="translate(0 80.9595336914062)  rotate(0 79.582275390625 2.17193603515625)" opacity="1" d="M159.16 0C157.69 1.44 156.21 2.88 154.76 4.34L0 4.34L0 0L159.16 0Z" /><path id="路径 543" fill-rule="evenodd" style="fill:#7DCCED" transform="translate(6.8377685546875 8.09587097167963)  rotate(0 30.656494140625 2.17193603515625)" opacity="1" d="M0 4.34C2.49 2.89 4.97 1.42 7.47 0L56.99 0C58.41 1.48 59.79 2.98 61.31 4.34L0 4.34Z" /><path id="路径 544" fill-rule="evenodd" style="fill:#7DCCED" transform="translate(0 32.38388061523435)  rotate(0 87.074951171875 2.1719512939452983)" opacity="1" d="M172.48 0C173.13 1.41 173.69 2.86 174.15 4.34L0 4.34L0 0L172.48 0Z" /><path id="路径 545" fill-rule="evenodd" style="fill:#7DCCED" transform="translate(0 56.671508789062386)  rotate(0 87.462646484375 2.172134399414091)" opacity="1" d="M174.93 0C174.59 1.47 174.18 2.92 173.67 4.34L0 4.34L0 0L174.93 0Z" /><path id="路径 546" fill-rule="evenodd" style="fill:#7DCCED" transform="translate(0 89.05538940429682)  rotate(0 75.61056518554688 2.17193603515625)" opacity="1" d="M151.22 0C150.02 1.37 148.86 2.82 147.79 4.34L0 4.34L0 0L151.22 0Z" /><path id="路径 547" fill-rule="evenodd" style="fill:#7DCCED" transform="translate(0 72.8636474609375)  rotate(0 83.40936279296875 2.171936035156193)" opacity="1" d="M166.82 0C165.58 1.5 164.27 2.94 162.92 4.34L0 4.34L0 0L166.82 0Z" /><path id="路径 548" fill-rule="evenodd" style="fill:#7DCCED" transform="translate(0 40.479751586914006)  rotate(0 87.86624145507812 2.17193603515625)" opacity="1" d="M0 0L175.11 0C175.4 1.43 175.61 2.89 175.73 4.34L0 4.34L0 0Z" /><path id="路径 549" fill-rule="evenodd" style="fill:#7DCCED" transform="translate(0 24.288009643554602)  rotate(0 85.22921752929688 2.17193603515625)" opacity="1" d="M167.31 0C168.46 1.37 169.52 2.82 170.46 4.34L0 4.34L0 0L167.31 0Z" /></g><path id="矩形 138" fill-rule="evenodd" style="fill:#7DCCED" transform="translate(192.53464186706114 9.175224167490228)  rotate(0 0.7786527872085571 68.16168212890625)" opacity="1" d="M0,136.32L1.56,136.32L1.56,0L0,0L0,136.32Z " /><path id="矩形 139" fill-rule="evenodd" style="fill:#7DCCED" transform="translate(191.33908522643614 128.92877278962158)  rotate(0 1.9458178281784058 8.284911155700684)" opacity="1" d="M0,16.57L3.89,16.57L3.89,0L0,0L0,16.57Z " /><g opacity="1" transform="translate(266.97922194518617 128.884967738937)  rotate(0 27.213606406366864 40.49747320405322)"><path id="路径 550" fill-rule="evenodd" style="fill:#FF5722" transform="translate(7.4044189453125 10.288098263575193)  rotate(0 10.83663729096304 11.571044921875)" opacity="1" d="M0 0C0 0 3.96 5.03 9.61 6.25C9.61 6.25 22.26 12.28 21.65 23.14C21.65 23.14 0.76 18.14 0 0Z" /><path id="路径 551" fill-rule="evenodd" style="fill:#FF5722" transform="translate(39.62954090779749 26.314709591700193)  rotate(0 7.398835952468119 7.1055908203125)" opacity="1" d="M4.94 6.04C6.05 5.35 7.31 4.95 8.6 4.74C10.27 4.47 12.96 3.48 14.65 0C14.65 0 17.26 12.13 0.44 14.21C0.44 14.21 -2.08 10.46 4.94 6.04Z" /><path id="路径 552" fill-rule="evenodd" style="fill:#FF9A7A" transform="translate(39.63022078746894 26.314343380762693)  rotate(0 7.397510835602418 6.40374755859375)" opacity="1" d="M8.6 4.74C10.27 4.47 12.96 3.48 14.65 0C14.65 0 14.82 0.81 14.79 2.04C14.77 1.16 14.65 0.61 14.65 0.61C12.96 4.08 10.27 5.08 8.6 5.35C7.31 5.56 6.05 5.95 4.94 6.65C1.09 9.08 0.11 11.3 0.01 12.81C-0.11 11.32 0.54 8.82 4.94 6.04C6.05 5.35 7.31 4.95 8.6 4.74Z" /><path id="路径 553" fill-rule="evenodd" style="fill:#FF5722" transform="translate(25.297888247768583 0.002453732325193414)  rotate(0 6.024682635537147 16.94415283203125)" opacity="1" d="M9.34 10.83C11.49 14.93 12.48 19.57 11.87 24.17C10.96 31.13 7.57 33.89 7.57 33.89C-8.22 21.5 5.6 0 5.6 0C6.64 4.94 8.12 8.5 9.34 10.83Z" /><path id="路径 554" fill-rule="evenodd" style="fill:#FF9A7A" transform="translate(30.37725830078125 0)  rotate(0 3.4850006332683847 16.972450498831847)" opacity="1" d="M2.49 33.89C3.49 32.78 5.71 29.54 6.39 24.34C7 19.75 5.43 14.07 3.28 9.97C2.19 7.88 1.01 5.03 0 0.87C0.52 -0.09 0.52 0 0.52 0C1.56 4.94 3.04 8.5 4.26 10.83C6.41 14.93 7.4 19.58 6.79 24.17C5.88 31.13 2.49 33.89 2.49 33.89ZM2.49 33.89C2.375 33.8 2.43 33.8475 2.48625 33.8937C2.5425 33.94 2.6 33.985 2.49 33.89Z" /><path id="路径 555" fill-rule="evenodd" style="fill:#FF5722" transform="translate(0 29.087659695858065)  rotate(0 9.83545795584024 6.7636061568548485)" opacity="1" d="M19.67 13.52C13.72 13.82 9.91 7.72 9.91 7.72C8.23 2.54 0 8.94 0 8.94C2.9 -1.58 10.52 0.1 10.52 0.1C19.97 0.4 19.67 13.52 19.67 13.52Z" /><path id="路径 556" fill-rule="evenodd" style="fill:#FF9A7A" transform="translate(0 29.087659695858065)  rotate(0 9.835457915222662 6.758086715499189)" opacity="1" d="M10.52 0.1C19.97 0.4 19.67 13.52 19.67 13.52L19.66 13.52C19.58 10.94 18.75 0.97 10.52 0.71C10.52 0.71 3.29 -0.88 0.24 8.77C0.1 8.87 0 8.94 0 8.94C2.9 -1.58 10.52 0.1 10.52 0.1Z" /><g opacity="1" transform="translate(17.880605021719134 40.55898790282515)  rotate(0 5.204416825939745 8.610670356028663)"><path id="路径 557" fill-rule="evenodd" style="fill:#191C3C" transform="translate(0 0)  rotate(0 5.204416825939745 8.610670356028663)" opacity="1" d="M10.41 16.55C10.42 17.46 9.09 17.43 9.02 16.55C8.69 12.33 8.54 7.21 4.84 4.47C3.12 3.2 1.35 2.28 0.06 0.53C-0.18 0.2 0.35 -0.19 0.62 0.1C2.7 2.35 5.94 3.24 7.76 5.73C9.85 8.59 10.37 13.1 10.41 16.55Z" /></g><g opacity="1" transform="translate(25.13546749455645 28.947130191210704)  rotate(0 3.3524404564545875 14.760705501786276)"><path id="路径 558" fill-rule="evenodd" style="fill:#191C3C" transform="translate(0 0)  rotate(0 3.3524404564545875 14.760705501786276)" opacity="1" d="M6.7 28.81C6.8 29.38 5.97 29.84 5.69 29.24C3.89 25.35 3.7 20.84 4.26 16.64C5.11 10.26 5.51 5.24 0.13 0.72C-0.23 0.42 0.25 -0.21 0.63 0.07C3.74 2.31 5.9 5.5 6.31 9.39C6.50546 11.2689 6.204 13.1041 5.9019 14.9431C5.72486 16.0209 5.54759 17.1 5.47 18.19C5.25948 21.2804 5.81477 24.1722 6.38352 27.1342C6.4902 27.6898 6.59734 28.2478 6.7 28.81Z" /></g><g opacity="1" transform="translate(31.509626007566453 28.23765111125931)  rotate(0 1.5278125331470847 14.514912456931711)"><path id="路径 559" fill-rule="evenodd" style="fill:#191C3C" transform="translate(0 0)  rotate(0 1.5278125331470847 14.514912456931711)" opacity="1" d="M0.82 28.82C0.64 29.2 -0.04 29.02 0 28.6C0.175018 26.8312 0.460968 25.0929 0.746316 23.3583C1.22726 20.4347 1.70649 17.5214 1.65 14.49C1.61639 12.4984 1.37091 10.5173 1.12574 8.5387C0.787417 5.80831 0.449667 3.08256 0.67 0.34C0.7 -0.11 1.32 -0.11 1.36 0.34C1.53566 2.28923 1.80002 4.29222 2.06802 6.32288C3.06633 13.887 4.11533 21.8352 0.82 28.82Z" /></g><g opacity="1" transform="translate(33.656543967886364 37.460720145393225)  rotate(0 5.534040497771059 9.550970555831952)"><path id="路径 560" fill-rule="evenodd" style="fill:#191C3C" transform="translate(0 0)  rotate(0 5.534040497771059 9.550970555831952)" opacity="1" d="M1.67 18.75C1.66 19.08 1.29 19.2 1.05 19.01C-1.13606 17.2143 0.606077 12.3182 1.63496 9.42663C1.79213 8.98491 1.93266 8.58997 2.04 8.26C3.33 4.32 7.51 2.53 10.58 0.06C10.8 -0.12 11.22 0.12 11.01 0.4C9.11 2.97 5.89 4.52 4.24 7.11C2.3 10.17 1.78 15.19 1.67 18.75Z" /></g><path id="路径 561" fill-rule="evenodd" style="fill:#1C75BC" transform="translate(18.24127197265625 52.38490002138769)  rotate(0 13.55859375 14.305023193359375)" opacity="1" d="M27.12 0L24.24 25.69C24.06 27.35 22.65 28.61 20.98 28.61L6.97 28.61C5.33 28.61 3.94 27.41 3.71 25.79L0 0L27.12 0Z" /><path id="路径 562" fill-rule="evenodd" style="fill:#15588D" transform="translate(18.59881591796875 54.87202160341894)  rotate(0 13.2406005859375 9.029937744140625)" opacity="0.57" d="M0.28 1.96L0 0L26.48 0L24.46 18.06L0.28 1.96Z" /><path id="矩形 140" fill-rule="evenodd" style="fill:#1C75BC" transform="translate(16.471744537353516 51.212578701807615)  rotate(0 15.327990531921387 2.0831944942474365)" opacity="1" d="M0,4.17L30.66,4.17L30.66,0L0,0L0,4.17Z " /></g><path id="路径 575" fill-rule="evenodd" style="fill:#1C75BC" transform="translate(25.483662252803327 89.80227271089075)  rotate(0 84.94547317850561 72.40425345733416)" opacity="1" d="M25.78 70.26C22.74 56.17 10.56 46.35 0 36.48C1.97 26.97 5.3 17.84 9.84 9.37C17.52 -4.97 38.71 -2.26 42.8 13.48C42.84 13.61 42.87 13.74 42.91 13.87C57.08 67.5 112.04 99.49 165.67 85.31C175.58 82.69 168.16 124.55 142.07 144.81L55.46 144.81C38.7 137.03 26.95 114.66 26.15 96.2C26.0067 92.9333 26.1792 89.6452 26.3515 86.3621C26.6359 80.9418 26.9197 75.535 25.78 70.26Z" /><g opacity="0.2" transform="translate(25.47868598022029 111.74562154450439)  rotate(0 82.89354705810548 61.43254089355469)"><path id="路径 576" fill-rule="evenodd" style="fill:#15588D" transform="translate(0 0)  rotate(0 82.89354705810548 61.43254089355469)" opacity="1" d="M26.3538 64.4613C26.6385 59.0268 26.9225 53.6041 25.78 48.31C22.74 34.23 10.56 24.4 0 14.53C1.03 9.57 2.43 4.71 4.17 0C4.89 0.44 5.57 0.93 6.21 1.45C10.13 4.63 12.92 8.97 15.47 13.34C22.06 24.66 27.42 36.71 31.43 49.19C34.69 59.34 37.37 70.35 45.1 77.71C51.23 83.55 59.73 86.22 68.08 87.71C81.12 90.04 94.58 89.97 107.59 87.48C118.62 85.38 129.39 81.56 140.6 81.13C149.62 80.79 159.34 83.23 165.79 89.2C161.42 100.85 153.56 113.95 142.07 122.87L55.47 122.87C38.71 115.08 26.95 92.72 26.15 74.26C26.011 71.0065 26.1825 67.7317 26.3538 64.4613Z" /></g><g opacity="1" transform="translate(114.62324965514708 126.66166768708257)  rotate(0 51.826777875254436 21.302581787109347)"><path id="路径 577" fill-rule="evenodd" style="fill:#191C3C" transform="translate(21.213409423828125 0)  rotate(0 41.22007316334037 21.302581787109347)" opacity="1" d="M79.88 0C81.68 0 82.91 1.8 82.27 3.47L67.15 42.61L0 42.61L15.83 1.63C16.21 0.65 17.15 0 18.21 0L79.88 0Z" /><path id="路径 578" fill-rule="evenodd" style="fill:#27AAE1" transform="translate(23.72454833984375 1.4691772460936932)  rotate(0 38.866559270630205 19.57904052734375)" opacity="1" d="M75.31 0C77.01 0 78.18 1.71 77.57 3.29L63.6 39.16L0 39.16L14.64 1.55C15 0.61 15.89 0 16.89 0L75.31 0Z" /><path id="矩形 141" fill-rule="evenodd" style="fill:#DFE2EC" transform="translate(0 38.32667160034174)  rotate(0 44.18156814575195 2.1392416954040527)" opacity="1" d="M2.14,4.28L88.36,4.28L88.36,0L2.14,0C1.57,0 1.03,0.23 0.63,0.63C0.23,1.03 0,1.57 0,2.14L0,2.14C0,2.71 0.23,3.25 0.63,3.65C1.03,4.05 1.57,4.28 2.14,4.28Z " /><path id="路径 579" fill-rule="evenodd" style="fill:#F2F3F7" transform="translate(42.80517578125 38.32678222656244)  rotate(0 23.605331420898438 2.139190673828125)" opacity="1" d="M2.14 0L47.21 0L45.56 4.28L2.14 4.28C0.96 4.28 0 3.32 0 2.14C0 0.96 0.96 0 2.14 0Z" /></g><g opacity="1" transform="translate(178.1624533093586 120.5394981924536)  rotate(0 37.88207260550416 17.081298828125)"><path id="路径 582" fill-rule="evenodd" style="fill:#FFFFFF" transform="translate(0 0)  rotate(0 37.88207260550416 17.081298828125)" opacity="1" d="M64.29 32.11C63.86 33.24 62.6 34.16 61.47 34.16L1.4 34.15C0.28 34.15 -0.28 33.23 0.14 32.1L11.48 2.05C11.91 0.92 13.17 0 14.29 0L74.36 0.01C75.49 0.01 76.05 0.93 75.62 2.07L64.29 32.11Z" /><path id="路径 583" fill-rule="evenodd" style="fill:#DDE2FF" transform="translate(0.02917097957754322 0.14212036132806816)  rotate(0 37.8669180723503 17.010223388671903)" opacity="1" d="M61.45 34.02L1.37 34.01C0.6 34.01 0.1 33.57 0 32.93C0.19 33.01 0.4 33.06 0.65 33.06L60.72 33.07C61.84 33.07 63.1 32.15 63.53 31.02L74.86 0.97C75 0.62 75.02 0.29 74.98 0C75.65 0.29 75.93 1.04 75.59 1.92L64.26 31.97C63.83 33.1 62.57 34.02 61.45 34.02Z" /><g opacity="1" transform="translate(18.071124083429666 8.56019760600528)  rotate(0 1.705352216475323 0.5613310265948335)"><path id="椭圆 39" fill-rule="evenodd" style="fill:#A4C8E4" transform="translate(-3.3225360815593445 -2.8563668798993076)  rotate(-39.50360145611073 5.027888298034668 3.4176979064941406)" opacity="1" d="M5.03,0C2.25,0 0,1.53 0,3.42C0,5.31 2.25,6.84 5.03,6.84C7.8,6.84 10.06,5.31 10.06,3.42C10.06,1.53 7.8,0 5.03,0Z " /></g><g opacity="1" transform="translate(9.312834389749355 19.94757080078125)  rotate(0 4.448296365291753 4.145233154296875)"><path id="路径 584" fill-rule="evenodd" style="fill:#A4C8E4" transform="translate(0 0)  rotate(0 4.448296365291753 4.145233154296875)" opacity="1" d="M0.3 4.15C1.19 1.86 3.77 0 6.06 0C8.35 0 9.48 1.86 8.59 4.15C7.7 6.43 5.13 8.29 2.84 8.29C0.55 8.29 -0.59 6.43 0.3 4.15Z" /></g><path id="路径 585" fill-rule="evenodd" style="fill:#FF5722" transform="translate(31.599727620202543 6.12091064453125)  rotate(0 16.45355224609375 0.83831787109375)" opacity="1" d="M0.63 0L32.91 0L32.21 1.67L0 1.68L0.63 0Z" /><path id="路径 586" fill-rule="evenodd" style="fill:#A4C8E4" transform="translate(30.071285237390043 10.19329833984375)  rotate(0 12.19952392578125 0.8375549316405966)" opacity="1" d="M0.63 0L24.4 0L23.7 1.67L0 1.68L0.63 0Z" /><path id="路径 587" fill-rule="evenodd" style="fill:#27AAE1" transform="translate(25.687374104577543 21.27099609375)  rotate(0 5.7696533203125 0.83831787109375)" opacity="1" d="M0.63 0L11.54 0L10.84 1.67L0 1.68L0.63 0Z" /><path id="路径 588" fill-rule="evenodd" style="fill:#A4C8E4" transform="translate(24.158992756921293 25.3433837890625)  rotate(0 8.6966552734375 0.837554931640625)" opacity="1" d="M0.63 0L17.39 0L16.69 1.67L0 1.68L0.63 0Z" /></g><g opacity="1" transform="translate(134.11986973302325 96.36985860505126)  rotate(0 8.02324322064635 6.7088775634765625)"><path id="路径 589" fill-rule="evenodd" style="fill:#FEC55E" transform="translate(0 0)  rotate(0 8.02324322064635 6.7088775634765625)" opacity="1" d="M0.31 9.26L2.32 4.16C3.22 1.86 5.82 0 8.12 0L13.21 0C15.51 0 16.64 1.86 15.73 4.16L13.73 9.26C12.83 11.55 10.23 13.42 7.93 13.42L2.84 13.42C0.54 13.42 -0.59 11.55 0.31 9.26Z" /><path id="路径 590" fill-rule="evenodd" style="fill:#FEDC9E" transform="translate(0.4705735256394519 0.5060729980469318)  rotate(0 7.787901456621057 6.455841064453097)" opacity="1" d="M13.26 8.75C12.35 11.05 9.76 12.91 7.46 12.91L2.37 12.91C1.29 12.91 0.48 12.5 0 11.83C0.46 12.15 1.07 12.34 1.79 12.34L6.88 12.34C9.18 12.34 11.78 10.47 12.68 8.17L14.69 3.08C15.17 1.86 15.07 0.76 14.53 0C15.55 0.71 15.88 2.08 15.26 3.66L13.26 8.75Z" /><g opacity="1" transform="translate(3.6126950790604724 4.393675327301025)  rotate(0 4.25079345703125 2.315231323242159)"><path id="路径 591" fill-rule="evenodd" style="fill:#FFFFFF" transform="translate(0 1.2301025390625)  rotate(0 1.6551513671875 1.4438781738280966)" opacity="1" d="M0 1.83L0.31 1.05L3.31 0L2.96 0.9L1.13 1.44L1.12 1.46L2.53 1.99L2.17 2.89L0 1.83Z" /><path id="路径 592" fill-rule="evenodd" style="fill:#FFFFFF" transform="translate(2.221160888671875 0)  rotate(0 2.1382141113280966 2.315231323242159)" opacity="1" d="M3.28 0L4.28 0L1 4.63L0 4.63L3.28 0Z" /><path id="路径 593" fill-rule="evenodd" style="fill:#FFFFFF" transform="translate(5.205841064453125 1.23583984375)  rotate(0 1.6478729248046875 1.443862915039091)" opacity="1" d="M0 2.89L0.35 1.99L2.17 1.45L2.18 1.43L0.78 0.9L1.14 0L3.3 1.05L2.99 1.83L0 2.89Z" /></g></g><g opacity="1" transform="translate(121.62649216112774 115.24860463776616)  rotate(0 32.51132548669361 14.676239013671847)"><path id="路径 594" fill-rule="evenodd" style="fill:#FFFFFF" transform="translate(0 0)  rotate(0 32.35781838928682 14.676239013671847)" opacity="1" d="M54.71 28.03C54.4 28.83 53.63 29.35 52.78 29.35L0.37 29.35C0.07 29.35 -0.08 29.11 0.04 28.81L11.02 0.54C11.14 0.24 11.47 0 11.77 0L63.77 0C64.07 0 64.82 1.96 64.7 2.26L54.71 28.03Z" /><path id="路径 595" fill-rule="evenodd" style="fill:#FF5722" transform="translate(8.690162645386522 0)  rotate(0 28.166244164000346 3.2712097167968466)" opacity="1" d="M55.08 0C55.96 0 56.57 0.88 56.25 1.7L54.35 6.54L0 6.54L2.33 0.55C2.45 0.24 2.79 0 3.09 0L55.08 0Z" /><path id="路径 596" fill-rule="evenodd" style="fill:#DDE2FF" transform="translate(1.1368683772161603e-13 0.09768676757801131)  rotate(0 32.51096579475518 14.627395629882841)" opacity="1" d="M0.35 27.91L52.01 27.91C52.87 27.91 53.63 27.39 53.94 26.59L62.52 4.48L64.17 0.27C64.2 0.18 64.22 0.09 64.24 0C64.84 0.25 65.2 0.94 64.94 1.61L63.28 5.82L54.71 27.94C54.4 28.73 53.63 29.25 52.78 29.25L0.37 29.25C0.07 29.25 -0.08 29.01 0.04 28.71L0.35 27.91Z" /><path id="路径 597" fill-rule="evenodd" fill="url(#linear_0)" transform="translate(5.540016161011522 12.74200439453125)  rotate(0 26.062484741210938 5.889266967773409)" opacity="1" d="M46.19 3.37C48.26 2.51 50.15 0.86 52.12 0C51.9578 0.648768 50.3233 4.76895 49.0591 7.9558C48.2188 10.0741 47.542 11.78 47.57 11.78L0 11.78C0.17 11.34 0.43 10.11 0.86 9.82C1.25822 9.56352 1.85232 9.78537 2.34406 9.96899C2.58089 10.0574 2.79397 10.137 2.95 10.15C3.69 10.22 4.52 10.09 5.34 9.76C7.65 8.84 9.52 6.66 11.74 5.33C13.54 4.26 15.67 3.82 17.3 4.06C19.41 4.36 19.52 5.81 20.21 7.39C20.75 8.62 21.78 9.35 23.5 9.1C26.18 8.71 29.39 6.85 31.94 5.32C32.3132 5.09773 32.6909 4.85425 33.072 4.60865C34.5595 3.64982 36.0974 2.65855 37.61 2.77C39.08 2.87 39.84 3.97 41.21 4.22C42.67 4.48 44.53 4.06 46.19 3.37Z" /><path id="路径 598" fill-rule="evenodd" style="fill:#FFFFFF" transform="translate(13.856866679921836 2.51385498046875)  rotate(0 0.7689964491451065 0.7165832519530966)" opacity="1" d="M0.05 0.72C0.21 0.32 0.65 0 1.05 0C1.44 0 1.64 0.32 1.49 0.72C1.33 1.11 0.89 1.43 0.49 1.43C0.09 1.43 -0.1 1.11 0.05 0.72Z" /><path id="路径 599" fill-rule="evenodd" style="fill:#FFFFFF" transform="translate(17.18691600454474 2.51385498046875)  rotate(0 0.7689017819519961 0.7165832519530966)" opacity="1" d="M0.05 0.72C0.21 0.32 0.65 0 1.05 0C1.44 0 1.64 0.32 1.49 0.72C1.33 1.11 0.89 1.43 0.49 1.43C0.09 1.43 -0.1 1.11 0.05 0.72Z" /><path id="路径 600" fill-rule="evenodd" style="fill:#FFFFFF" transform="translate(20.51674998891974 2.51385498046875)  rotate(0 0.7689243471232317 0.7165832519530966)" opacity="1" d="M0.05 0.72C0.21 0.32 0.65 0 1.05 0C1.44 0 1.64 0.32 1.49 0.72C1.33 1.11 0.89 1.43 0.49 1.43C0.09 1.43 -0.1 1.11 0.05 0.72Z" /><path id="路径 601" fill-rule="evenodd" style="fill:#FF794E" transform="translate(61.75525663952715 0.09768676757801131)  rotate(0 1.6333312581518271 3.6047058105469034)" opacity="1" d="M0.76 4.48L2.41 0.27C2.45 0.18 2.47 0.09 2.48 0C3.09 0.25 3.44 0.94 3.18 1.61L1.53 5.82L0.99 7.21L0 6.44L0.76 4.48Z" /></g><g opacity="1" transform="translate(232.23302969419066 102.81958089509033)  rotate(0 8.023279462565029 6.7090911865234375)"><path id="路径 602" fill-rule="evenodd" style="fill:#FF5722" transform="translate(0 0)  rotate(0 8.02325539980609 6.7090911865234375)" opacity="1" d="M7.93 13.42L2.84 13.42C0.54 13.42 -0.59 11.55 0.31 9.26L2.32 4.16C3.22 1.86 5.82 0 8.12 0L13.21 0C15.51 0 16.64 1.86 15.73 4.16L13.73 9.26C12.83 11.55 10.23 13.42 7.93 13.42Z" /><path id="路径 603" fill-rule="evenodd" style="fill:#FF9A7A" transform="translate(0.470603261737665 0.506439208984375)  rotate(0 7.787977831696196 6.45587158203125)" opacity="1" d="M12.68 8.17L14.69 3.08C15.17 1.86 15.07 0.76 14.53 0C15.55 0.71 15.89 2.08 15.26 3.66L13.26 8.75C12.35 11.05 9.76 12.91 7.46 12.91L2.37 12.91C1.29 12.91 0.48 12.5 0 11.83C0.46 12.15 1.07 12.34 1.79 12.34L6.88 12.34C9.18 12.34 11.78 10.47 12.68 8.17Z" /><g opacity="1" transform="translate(5.607880388049921 4.419149875640869)  rotate(0 2.41558837890625 2.2900390625)"><g opacity="1" transform="translate(0 0)  rotate(0 2.41558837890625 2.2900390625)"><path id="路径 604" fill-rule="evenodd" style="fill:#FFFFFF" transform="translate(0 0)  rotate(0 2.41558837890625 2.2900390625)" opacity="1" d="M4.83 2.29L0 4.58L1.73 0L4.83 2.29Z" /></g></g></g><g opacity="1" transform="translate(151.61378133765456 86.47345052399663)  rotate(0 40.92090584606689 12.189407348632784)"><path id="路径 605" fill-rule="evenodd" style="fill:#FFFFFF" transform="translate(0 0)  rotate(0 40.90691846023742 12.189407348632784)" opacity="1" d="M0.25 20.78L6.79 3.6C7.55 1.61 9.78 0 11.77 0L79.33 0C81.32 0 82.32 1.61 81.56 3.6L75.02 20.78C74.26 22.77 72.04 24.38 70.05 24.38L2.48 24.38C0.49 24.38 -0.5 22.77 0.25 20.78Z" /><path id="路径 606" fill-rule="evenodd" style="fill:#DDE2FF" transform="translate(0.09737420128152507 0.6481933593749432)  rotate(0 40.85792516754381 11.86529541015625)" opacity="1" d="M81.46 2.95L74.92 20.13C74.16 22.12 71.94 23.73 69.95 23.73L2.39 23.73C1.13 23.73 0.28 23.09 0 22.12C0.43 22.53 1.05 22.77 1.81 22.77L69.38 22.77C71.36 22.77 73.59 21.16 74.35 19.17L80.89 1.99C81.17 1.26 81.21 0.57 81.04 0C81.73 0.65 81.93 1.73 81.46 2.95Z" /><path id="路径 607" fill-rule="evenodd" style="fill:#1C75BC" transform="translate(5.970573664172207 0)  rotate(0 37.935619013980784 2.8822021484375)" opacity="1" d="M0 5.76L0.86 3.51C1.6 1.57 3.77 0 5.71 0L73.45 0C75.39 0 76.36 1.57 75.62 3.51L74.77 5.76L0 5.76Z" /><path id="路径 608" fill-rule="evenodd" style="fill:#27AAE1" transform="translate(7.256625232670672 9.660430908203125)  rotate(0 6.112686297667494 5.711120605468693)" opacity="1" d="M0.4 5.71C1.6 2.56 5.13 0 8.29 0C11.44 0 13.02 2.56 11.82 5.71C10.62 8.87 7.09 11.42 3.94 11.42C0.78 11.42 -0.8 8.87 0.4 5.71Z" /><path id="路径 609" fill-rule="evenodd" style="fill:#7DCCED" transform="translate(23.566765070422207 10.130645751953068)  rotate(0 24.609710693359375 0.7690887451171875)" opacity="1" d="M0.59 0L49.22 0L48.63 1.54L0 1.54L0.59 0Z" /><path id="路径 610" fill-rule="evenodd" style="fill:#7DCCED" transform="translate(21.861259699328457 14.609344482421818)  rotate(0 24.6097412109375 0.7691345214843466)" opacity="1" d="M0.59 0L49.22 0L48.63 1.54L0 1.54L0.59 0Z" /><path id="路径 611" fill-rule="evenodd" style="fill:#7DCCED" transform="translate(20.155754328234707 19.08807373046875)  rotate(0 9.411651611328125 0.7690734863280966)" opacity="1" d="M0.59 0L18.82 0L18.24 1.54L0 1.54L0.59 0Z" /><path id="路径 612" fill-rule="evenodd" style="fill:#D1E1F2" transform="translate(12.362969542201768 2.1521911621092613)  rotate(0 0.7816745400118066 0.7301635742188068)" opacity="1" d="M0.05 0.73C0.2 0.33 0.66 0 1.06 0C1.46 0 1.67 0.33 1.51 0.73C1.36 1.13 0.91 1.46 0.5 1.46C0.1 1.46 -0.1 1.13 0.05 0.73Z" /><path id="路径 613" fill-rule="evenodd" style="fill:#D1E1F2" transform="translate(15.535494072575034 2.1521911621092613)  rotate(0 0.781734912680065 0.7301635742188068)" opacity="1" d="M0.05 0.73C0.21 0.33 0.66 0 1.06 0C1.46 0 1.67 0.33 1.51 0.73C1.36 1.13 0.91 1.46 0.5 1.46C0.1 1.46 -0.1 1.13 0.05 0.73Z" /><path id="路径 614" fill-rule="evenodd" style="fill:#D1E1F2" transform="translate(18.708248402224285 2.1521911621092613)  rotate(0 0.7815761741576921 0.7301635742188068)" opacity="1" d="M0.05 0.73C0.21 0.33 0.66 0 1.06 0C1.46 0 1.67 0.33 1.51 0.73C1.36 1.13 0.91 1.46 0.5 1.46C0.1 1.46 -0.1 1.13 0.05 0.73Z" /><path id="路径 615" fill-rule="evenodd" style="fill:#4991C9" transform="translate(79.7712328438597 0.6481933593749432)  rotate(0 1.0209805874656013 2.9882965087890625)" opacity="1" d="M0.64 5.98L0 5.19L1.21 1.99C1.5 1.26 1.53 0.57 1.37 0C2.05 0.65 2.25 1.73 1.79 2.95L0.64 5.98Z" /></g></g></svg>